<svg xmlns="http://www.w3.org/2000/svg" xmlns:xlink="http://www.w3.org/1999/xlink" id="Layer_1" x="0px" y="0px" viewBox="0 0 53 53" style="enable-background:new 0 0 53 53;" xml:space="preserve"><style type="text/css">	.st0{fill:#FFFFFF;}</style><g id="BMW-logo-grey-fallback-53px">	<g id="BMW-logo">		<g id="BMW-logo-fallback">			<g id="BMW_Grey-Colour_RGB-2">				<g id="BMW_Grey-Colour_RGB">					<path id="Shape" class="st0" d="M26.5,0C11.86,0,0,11.86,0,26.5S11.86,53,26.5,53S53,41.14,53,26.5S41.14,0,26.5,0L26.5,0z       M51.28,26.5c0,13.68-11.09,24.78-24.78,24.78S1.72,40.18,1.72,26.5S12.82,1.72,26.5,1.72S51.28,12.82,51.28,26.5z"></path>					<path id="Shape_00000164492021164484152070000003033262038754393481_" class="st0" d="M26.5,10.8v0.86l0,0      c8.18,0,14.84,6.66,14.84,14.84h0.86C42.2,17.83,35.17,10.8,26.5,10.8L26.5,10.8 M26.5,41.34c-8.18,0-14.84-6.66-14.84-14.84      H10.8c0,8.67,7.03,15.7,15.7,15.7"></path>					<g id="Group" transform="translate(7.197531, 3.271605)">						<path id="W_61_" class="st0" d="M31.99,12.05c0.36,0.38,0.88,1,1.17,1.38l5.36-3.38c-0.27-0.35-0.69-0.88-1.01-1.25l-3.4,2.23       l-0.23,0.2l0.17-0.25L35.55,8l-1.06-1.05L31.5,8.44l-0.25,0.17l0.2-0.23l2.25-3.37C33.3,4.67,32.92,4.37,32.43,4l-3.4,5.32       c0.43,0.33,1,0.81,1.36,1.14l3.2-1.65l0.21-0.15l-0.15,0.2L31.99,12.05z"></path>						<path id="M_61_" class="st0" d="M19.83,5.3l1.46-3.26l0.09-0.29l-0.03,0.3l0.15,4.35c0.51,0.05,1.04,0.12,1.57,0.21       l-0.24-6.45C22.11,0.09,21.38,0.03,20.65,0l-1.44,3.56l-0.05,0.26l-0.05-0.26L17.66,0c-0.73,0.03-1.46,0.09-2.19,0.17       l-0.24,6.45c0.52-0.09,1.05-0.16,1.57-0.21l0.15-4.35l-0.03-0.3l0.09,0.29l1.46,3.26H19.83z"></path>						<path id="B_x5F_22d_61_" class="st0" d="M7.98,10.44C8.82,9.56,9.3,8.54,8.46,7.56C8,7.03,7.22,6.91,6.58,7.17L6.52,7.2       l0.02-0.06C6.63,6.89,6.69,6.09,6,5.53C5.67,5.26,5.25,5.16,4.82,5.2c-0.8,0.08-1.41,0.62-3.07,2.46       c-0.5,0.56-1.23,1.43-1.67,2l4.57,4.31C6.16,12.31,6.78,11.69,7.98,10.44z M2.01,9.39c0.92-1.12,1.9-2.13,2.34-2.54       c0.14-0.13,0.29-0.25,0.48-0.3c0.3-0.08,0.61,0.13,0.68,0.44c0.07,0.31-0.12,0.6-0.34,0.84c-0.49,0.55-2.27,2.4-2.27,2.4       L2.01,9.39z M3.8,11.08c0,0,1.74-1.83,2.31-2.41c0.23-0.23,0.37-0.37,0.53-0.45c0.2-0.1,0.42-0.12,0.62,0.01       C7.44,8.36,7.53,8.58,7.48,8.8C7.43,9.06,7.21,9.31,7.03,9.5c-0.24,0.26-2.3,2.45-2.31,2.45L3.8,11.08z"></path>					</g>					<path id="Path" class="st0" d="M26.5,10.8v15.7H10.8C10.8,17.82,17.82,10.8,26.5,10.8z"></path>					<path id="Path_00000020365169608471795720000005477781901770385312_" class="st0" d="M42.2,26.5c0,8.68-7.03,15.7-15.7,15.7      V26.5H42.2z"></path>				</g>			</g>		</g>	</g></g></svg>