<svg xmlns="http://www.w3.org/2000/svg" xmlns:xlink="http://www.w3.org/1999/xlink" id="Layer_1" x="0px" y="0px" viewBox="0 0 4882.45 1109.28" style="enable-background:new 0 0 4882.45 1109.28;" xml:space="preserve"><style type="text/css">	.st0{fill:#FFFFFF;}</style><g id="BUICK">	<path class="st0" d="M2772.3,679.5h-206.47c-27.45,0-49.84-0.22-72.09-4.85c-21.5-4.46-39.54-12.63-53.67-25.08  c-14.13-12.46-23.4-28.33-28.48-47.27c-2.53-9.46-3.98-19.39-4.73-30.04c-0.76-10.81-0.78-21.54-0.78-33.47  c0-54.95,0-109.88,0-164.83c-52.46-0.02-104.93-0.05-157.4-0.07c-0.02,44.49-0.05,88.98-0.07,133.49c0,18.68,0,35.46,1.27,52.38  c1.24,16.69,3.64,32.22,7.89,47.02c8.49,29.65,23.99,54.49,47.66,73.99c23.66,19.5,53.86,32.26,89.85,39.26  c17.98,3.5,36.86,5.49,57.12,6.52c20.56,1.05,40.94,1.07,63.63,1.07c138.05,0,276.1,0,414.15,0V373.95H2772.3v305.56L2772.3,679.5z   M2077.35,542.53v-5.01c9.35-2.01,18.06-5.55,25.46-9.86c7.44-4.33,13.9-9.63,19.23-15.77c10.23-11.74,18.27-29.05,18.27-51.33  c0-17.6-5.04-34.29-13.67-47.35c-8.72-13.22-20.7-22.41-34.95-28.44c-14.23-6-30.12-8.65-46.02-9.87  c-15.08-1.16-31.97-1.07-43.24-1.07c-181.5,0.06-363.01,0.12-544.5,0.18v353.66h569c7.72,0,22.68,0.02,38.66-1.79  c16.35-1.86,33.4-5.57,48.68-12.99c15.34-7.43,27.84-18.09,36.73-32.52c8.83-14.33,13.43-31.48,13.94-48.88  c0.68-23.53-6.18-46.79-23.41-63.88c-16.83-16.71-40.69-24.55-64.18-25.11L2077.35,542.53z M1615.78,422.08h295.1  c11.91,0,21.6,0.06,30.8,1.52c8.95,1.44,16.29,4.08,22.32,8.33c5.98,4.2,10.44,9.82,13.44,16.48c2.99,6.62,4.49,14.18,4.49,21.81  s-1.5,15.31-4.49,22.09c-3,6.83-7.46,12.67-13.44,17.06c-6.04,4.44-13.36,7.25-22.32,8.76c-9.22,1.56-18.86,1.62-30.8,1.62h-295.1  V422.08L1615.78,422.08z M1997.97,648.18c-3.52,7.79-8.75,14.48-15.81,19.51c-7.13,5.08-15.78,8.29-26.5,10.03  c-11.04,1.79-22.72,1.86-37.48,1.86H1615.8V567.85h302.39c14.73,0,26.46,0.06,37.48,1.74c10.71,1.63,19.38,4.66,26.5,9.51  c7.05,4.81,12.28,11.23,15.81,18.86c3.51,7.57,5.26,16.23,5.26,24.96S2001.48,640.42,1997.97,648.18z M3048.4,727.58h157.88V373.95  H3048.4V727.58z M3633.14,679.5c-28.08,0-50.89-0.18-73.5-4.31c-21.85-3.98-40.14-11.25-54.67-22.36  c-14.53-11.1-24.35-25.31-30.09-42.24c-5.9-17.39-6.99-35.34-7.38-56.79c-0.37-20.73-0.45-54.34,0.1-84.75  c0.15-8.05,0.36-15.06,1.89-21.72c1.5-6.5,4.13-11.82,8.22-15.89c4.1-4.08,9.39-6.61,15.84-7.99c6.61-1.41,13.51-1.46,21.51-1.46  h478.68v-48.02c-189.27,0-378.53,0-567.81-0.01c-19.82,0-35.76,0.16-51.82,3.51c-15.47,3.22-28.58,9.07-38.97,17.87  c-10.38,8.78-17.31,19.9-21.15,33c-3.97,13.59-4.21,27.1-4.2,43.86c0,22.1,0.1,39.84,0.46,56.43c0.35,16.76,0.99,32.15,2.88,47.36  c1.87,15.06,4.92,29.16,9.69,42.52c9.54,26.77,25.63,49.3,49.23,66.84c23.65,17.58,53.33,29.08,88.79,35.36  c17.72,3.15,36.34,4.92,56.38,5.85c20.34,0.94,40.56,0.97,63.1,0.97c139.93,0.01,279.83,0.04,419.75,0.05  c0-16.02,0-32.06-0.01-48.08h-366.9H3633.14z M4407.64,532.51v-4.75c19.14-7.52,43.51-17.02,71.95-28.05  c28.41-11.02,60.98-23.6,96.25-37.09c67.45-25.8,155.94-59.23,218.22-80.9v-7.76H4642.5c-108.13,43.65-216.28,87.31-324.41,130.95  h-68.29V373.92h-159.42v353.66h159.42v-153h62.09c28.03,14.09,77.55,39.74,118.68,61.03c45.03,23.3,99.08,51.3,131.54,68.29  c7.84,4.09,15.12,7.88,23.96,11.4c8.65,3.45,17.62,6.13,27.62,8.1c20.72,4.05,41.16,4.2,66.18,4.2c59.5,0,118.99,0,178.47,0  c0.01-4.21,0.04-8.43,0.05-12.64C4708.14,654.13,4557.88,593.32,4407.64,532.51L4407.64,532.51z"></path></g><g id="New_Shield">	<path class="st0" d="M307.23,34.73c-81.18-14.53-173.64-14.53-254.81,0c-3.38,0.6-6.73,1.23-8.01,7.31  c9.3,65.64,18.67,131.72,28.04,197.83c67.31-12.67,147.44-12.67,214.76,0c9.38-66.11,18.74-132.2,28.04-197.83  c-1.28-6.08-4.63-6.71-8.02-7.31H307.23z"></path>	<path class="st0" d="M278.96,502.86c-1.18-14.86-3.85-28.17-9.12-41c-5.26-12.81-12.72-24.18-22.14-35.68  c-9.17-11.2-20.09-22.3-28.98-31.43c-41.66-42.72-84.07-84.59-127.26-125.6c-1.41-1.34-3.45-2.15-5.48-1.57  c-1.97,0.57-3.23,2.26-3.29,4.39c-1.87,61.37-3.23,121.19-3.38,182.63c-0.14,58.95,0.81,123.64,5.09,182.64  c3.75,51.79,10.12,101.4,21.1,152.05c14.97,69.11,37.81,136.02,65.41,201.05h17.82c30.21-71.18,53.81-142.05,68.77-217.42  c15.15-76.35,20.04-149.32,21.95-227.29c0.31-12.86,0.69-28.12-0.48-42.77L278.96,502.86z M224.67,607.15  c-2.63,60.28-7.76,114.71-20.14,173.87C193.65,833,177.95,884.08,159.31,933.5c-18.06-48.17-32.85-96.34-43.69-146.38  c-8.88-40.96-14.74-81.37-18.64-123.29c-3.86-41.48-5.71-83.76-6.6-125.54c-1.07-49.89-0.86-103.6-0.05-153.61  c24.32,23.85,48.41,48.01,72.24,72.44c9.15,9.34,21.85,22.47,30.41,32.36c9.79,11.32,18.71,23.32,24.43,37.51  c4.48,11.1,6.56,22.41,7.46,34.35c1.03,13.62,0.51,30.5-0.18,45.81L224.67,607.15z"></path>	<path class="st0" d="M61.74,279.01c-7.4-72-14.79-144.03-22.14-215.49c-0.47,1.92-0.52,2.98-0.57,4.04  c-4.01,88.82-7.73,184.92-9.72,273.79c-1.95,87.08-2.79,186.87,2.06,273.87c4.98,89.51,15.79,167.1,40.59,252.96  c20.89,72.33,49.86,143.75,82.54,210.88c16.81,0.36,33.87,0.36,50.68,0c32.69-67.13,61.67-138.55,82.54-210.88  c24.78-85.86,35.59-163.44,40.59-252.96c4.85-86.98,4.02-186.79,2.05-273.87c-2-88.88-5.72-184.98-9.72-273.79  c-0.05-1.06-0.1-2.12-0.57-4.04c-7.34,71.48-14.74,143.5-22.14,215.49l0,0c1.99,66.18,3.33,132.49,3.14,198.79  c-0.16,53.96-1.32,107.9-5.26,161.73c-2.92,39.93-7.38,79.8-14.41,119.16c-4.91,27.51-11.08,54.78-18.32,81.76  c-17.62,65.58-41.61,129.48-69.56,191.17c-8.95,0.43-18.44,0.43-27.38,0c-27.9-61.57-51.85-125.3-69.43-190.67  c-7.17-26.64-13.27-53.56-18.17-80.72c-7.11-39.47-11.63-79.45-14.6-119.49c-3.99-53.86-5.18-107.84-5.35-161.82  c-0.21-66.67,1.13-133.35,3.12-199.92L61.74,279.01z"></path>	<path class="st0" d="M669.32,239.87c-67.31-12.67-147.44-12.67-214.76,0c-9.38-66.11-18.74-132.2-28.04-197.83  c1.28-6.08,4.63-6.71,8.01-7.31c81.18-14.53,173.64-14.53,254.81,0c3.39,0.6,6.73,1.23,8.02,7.31  c-9.3,65.64-18.67,131.72-28.04,197.83H669.32z"></path>	<path class="st0" d="M661.08,502.86c-1.18-14.86-3.85-28.17-9.12-41c-5.26-12.81-12.72-24.18-22.14-35.68  c-9.17-11.2-20.09-22.3-28.98-31.43c-41.66-42.72-84.07-84.59-127.26-125.6c-1.41-1.34-3.45-2.15-5.48-1.57  c-1.97,0.57-3.23,2.26-3.31,4.39c-1.87,61.37-3.23,121.19-3.38,182.63c-0.13,58.95,0.81,123.64,5.09,182.64  c3.75,51.79,10.12,101.4,21.1,152.05c14.97,69.11,37.81,136.02,65.41,201.05h17.82c30.21-71.18,53.81-142.05,68.77-217.42  c15.15-76.35,20.04-149.32,21.94-227.29c0.31-12.86,0.69-28.12-0.48-42.77L661.08,502.86z M606.79,607.15  c-2.63,60.28-7.75,114.71-20.14,173.87C575.77,833,560.07,884.08,541.43,933.5c-18.06-48.17-32.85-96.34-43.69-146.38  c-8.87-40.96-14.74-81.37-18.64-123.29c-3.86-41.48-5.71-83.76-6.6-125.54c-1.07-49.89-0.86-103.6-0.05-153.61  c24.32,23.85,48.41,48.01,72.24,72.44c9.15,9.34,21.85,22.47,30.41,32.36c9.79,11.32,18.71,23.32,24.43,37.51  c4.48,11.1,6.56,22.41,7.46,34.35c1.03,13.62,0.51,30.5-0.18,45.81L606.79,607.15z"></path>	<path class="st0" d="M443.84,279.01c-7.4-72-14.79-144.03-22.14-215.49c-0.47,1.92-0.52,2.98-0.57,4.04  c-4.01,88.82-7.73,184.92-9.72,273.79c-1.95,87.08-2.79,186.87,2.06,273.87c4.98,89.51,15.79,167.1,40.59,252.96  c20.89,72.33,49.86,143.75,82.54,210.88c16.81,0.36,33.87,0.36,50.68,0c32.69-67.13,61.67-138.55,82.54-210.88  c24.78-85.86,35.59-163.44,40.59-252.96c4.85-86.98,4.02-186.79,2.05-273.87c-2-88.88-5.72-184.98-9.72-273.79  c-0.05-1.06-0.1-2.12-0.57-4.04c-7.34,71.48-14.74,143.5-22.14,215.49l0,0c1.99,66.18,3.33,132.49,3.14,198.79  c-0.16,53.96-1.32,107.9-5.26,161.73c-2.92,39.93-7.38,79.8-14.41,119.16c-4.91,27.51-11.08,54.78-18.32,81.76  c-17.6,65.58-41.61,129.48-69.56,191.17c-8.95,0.43-18.44,0.43-27.38,0c-27.9-61.57-51.85-125.3-69.43-190.67  c-7.17-26.64-13.27-53.56-18.17-80.72c-7.11-39.47-11.63-79.45-14.6-119.49c-3.99-53.86-5.18-107.84-5.35-161.82  c-0.21-66.67,1.13-133.35,3.13-199.92L443.84,279.01z"></path>	<path class="st0" d="M1051.43,239.87c-67.31-12.67-147.44-12.67-214.76,0c-9.38-66.11-18.74-132.2-28.04-197.83  c1.28-6.08,4.63-6.71,8.01-7.31c81.18-14.53,173.64-14.53,254.81,0c3.39,0.6,6.73,1.23,8.02,7.31  c-9.3,65.64-18.67,131.72-28.04,197.83H1051.43z"></path>	<path class="st0" d="M1043.19,502.86c-1.18-14.86-3.85-28.17-9.12-41c-5.26-12.81-12.72-24.18-22.14-35.68  c-9.17-11.2-20.09-22.3-28.98-31.43c-41.66-42.72-84.07-84.59-127.26-125.6c-1.41-1.34-3.45-2.15-5.48-1.57  c-1.97,0.57-3.23,2.26-3.29,4.39c-1.87,61.37-3.23,121.19-3.38,182.63c-0.13,58.95,0.81,123.64,5.09,182.64  c3.75,51.79,10.12,101.4,21.1,152.05c14.97,69.11,37.81,136.02,65.41,201.05h17.82c30.21-71.18,53.81-142.05,68.77-217.42  c15.15-76.35,20.04-149.32,21.94-227.29c0.31-12.86,0.69-28.12-0.48-42.77L1043.19,502.86z M988.89,607.15  c-2.63,60.28-7.75,114.71-20.14,173.87C957.87,833,942.18,884.08,923.53,933.5c-18.06-48.17-32.85-96.34-43.69-146.38  c-8.87-40.96-14.74-81.37-18.64-123.29c-3.86-41.48-5.71-83.76-6.6-125.54c-1.07-49.89-0.86-103.6-0.05-153.61  c24.32,23.85,48.41,48.01,72.24,72.44c9.15,9.34,21.85,22.47,30.41,32.36c9.79,11.32,18.71,23.32,24.43,37.51  c4.48,11.1,6.56,22.41,7.46,34.35c1.03,13.62,0.51,30.5-0.18,45.81L988.89,607.15z"></path>	<path class="st0" d="M825.96,279.01c-7.4-72-14.79-144.03-22.14-215.49c-0.47,1.92-0.52,2.98-0.57,4.04  c-4.01,88.82-7.73,184.92-9.72,273.79c-1.95,87.08-2.79,186.87,2.06,273.87c4.98,89.51,15.79,167.1,40.59,252.96  c20.89,72.33,49.86,143.75,82.54,210.88c16.81,0.36,33.87,0.36,50.68,0c32.69-67.13,61.67-138.55,82.54-210.88  c24.78-85.86,35.59-163.44,40.59-252.96c4.85-86.98,4.02-186.79,2.05-273.87c-2-88.88-5.72-184.98-9.72-273.79  c-0.05-1.06-0.1-2.12-0.57-4.04c-7.34,71.48-14.74,143.5-22.14,215.49l0,0c1.99,66.18,3.33,132.49,3.14,198.79  c-0.16,53.96-1.32,107.9-5.26,161.73c-2.92,39.93-7.38,79.8-14.41,119.16c-4.91,27.51-11.06,54.78-18.32,81.76  c-17.6,65.58-41.61,129.48-69.56,191.17c-8.95,0.43-18.44,0.43-27.38,0c-27.9-61.57-51.85-125.3-69.43-190.67  c-7.17-26.64-13.27-53.56-18.17-80.72c-7.11-39.47-11.63-79.45-14.6-119.49c-3.99-53.86-5.18-107.84-5.35-161.82  c-0.21-66.67,1.13-133.35,3.12-199.92L825.96,279.01z"></path></g></svg>