<svg xmlns="http://www.w3.org/2000/svg" xmlns:xlink="http://www.w3.org/1999/xlink" x="0px" y="0px" viewBox="0 0 168.67 86" style="enable-background:new 0 0 168.67 86;" xml:space="preserve"><style type="text/css">	.st0{fill:#FFFFFF;}</style><g id="Layer_1">	<g>		<path class="st0" d="M7.1,72.65c0,0,9.95,0,9.95,0l0-2.51H5.04c-2.49,0-3.84,0.89-3.84,4c0,0-0.03,1.81-0.03,3.52   c0,1.71,0.03,3.54,0.03,3.54c0,3.08,1.35,3.97,3.85,3.97h12.38v-2.55H7.1c-0.72,0-0.89-0.18-0.89-0.89c0,0,0-8.02,0-8.21   C6.21,72.83,6.38,72.65,7.1,72.65"></path>		<polygon class="st0" points="32.27,70.14 32.27,76.04 24.22,76.04 24.22,70.14 19.15,70.14 19.15,85.18 24.22,85.18 24.22,78.45    32.27,78.45 32.27,85.18 37.33,85.18 37.33,70.14   "></polygon>		<g>			<path class="st0" d="M72.7,70.14l-4.9,12.3c-0.09,0.21-0.19,0.24-0.53,0.24c-0.34,0-0.44-0.02-0.53-0.24l-4.86-12.3l-18.2,0    c-2.49,0-3.85,0.89-3.85,4c0,0-0.03,1.81-0.03,3.52c0,1.71,0.03,3.55,0.03,3.55c0,3.08,1.35,3.97,3.85,3.97h12.77v-2.55H45.75    c-0.72,0-0.89-0.18-0.89-0.89c0,0,0-1.5,0-3.26H55.5v-2.48H44.86v-2.47c0-0.69,0.17-0.87,0.88-0.87c0,0,8.75,0,11.43,0    c1.57,3.78,4.37,10.28,4.62,10.84c0.35,0.78,0.96,1.68,2.28,1.68h4.72c1.32,0,1.77-0.88,2.11-1.67    c0.35-0.78,5.65-13.37,5.65-13.37H72.7z"></path>			<path class="st0" d="M103.02,72.63h3.22h3.24c0.71,0,0.88,0.18,0.88,0.86c0,0.2,0,8.27,0,8.27c0,0.71-0.17,0.89-0.87,0.89h-6.47    c-0.7,0-0.87-0.19-0.87-0.89c0,0,0-8.07,0-8.27C102.15,72.81,102.32,72.63,103.02,72.63 M115.38,74.12c0-3.12-1.36-4-3.85-3.99    c0,0-2.99-0.02-5.29-0.02c-2.3,0-5.27,0.02-5.27,0.02c-2.48,0-3.84,0.88-3.84,4c0,0-0.03,1.81-0.03,3.52    c0,1.71,0.03,3.58,0.03,3.58c0,3.08,1.36,3.97,3.84,3.97h5.27h5.29c2.49,0,3.85-0.9,3.85-3.98c0,0,0.03-1.86,0.03-3.58    C115.41,75.93,115.38,74.12,115.38,74.12"></path>		</g>		<polygon class="st0" points="122.98,82.63 122.98,70.14 117.94,70.14 117.94,85.18 133.54,85.17 133.54,82.63   "></polygon>		<g>			<path class="st0" d="M137.9,70.14c-2.48,0-3.84,0.88-3.84,4c0,0-0.03,1.8-0.03,3.52c0,1.71,0.03,3.54,0.03,3.54    c0,3.08,1.36,3.97,3.85,3.97c0.49,0,12.78-0.01,12.78-0.01v-2.52h-10.71c-0.72,0-0.89-0.18-0.89-0.89v-3.27h10.59v-2.5h-10.6    v-2.46c0-0.69,0.17-0.86,0.89-0.86c0.01,0,16.71-0.01,16.71-0.01v12.53h5.05V72.64h5.78v-2.5L137.9,70.14z"></path>			<path class="st0" d="M89.34,78.74c-0.15-0.11-0.07-0.19,0.08-0.19c0.05,0,2.27,0,2.27,0c1.68,0,3.26-0.52,3.37-2.82    c0.11-0.61,0.03-2.12,0.03-2.12c0-2.49-1.28-3.4-3.21-3.4l-14.82,0v14.98h4.99V72.65h7.4c0.46,0,0.58,0.13,0.6,0.4    c0.02,0.32,0.04,0.96,0.04,1.51c0,0.64,0,1.12-0.03,1.38c-0.03,0.25-0.28,0.4-0.61,0.4h-5.96l0,2.29l7.36,6.55h6.94    C97.79,85.19,89.41,78.79,89.34,78.74"></path>			<path class="st0" d="M149.55,19.47l-8.62,16.89h-36.26v11.84H64.03V36.36H19.15l8.62-16.89h36.26V7.63h40.64v11.84H149.55z     M166.84,12.56H111.5V1.9c0-0.6-0.49-1.09-1.09-1.09H58.26c-0.6,0-1.09,0.49-1.09,1.09v10.67H17.51c-0.6,0-1.34,0.49-1.64,1.09    L1.29,42.19c-0.31,0.6-0.07,1.09,0.54,1.09h55.34v10.67c0,0.6,0.49,1.09,1.09,1.09h52.15c0.6,0,1.09-0.49,1.09-1.09V43.27h39.66    c0.6,0,1.34-0.49,1.64-1.09l14.57-28.53C167.68,13.05,167.44,12.56,166.84,12.56"></path>		</g>	</g></g><g id="GUIDES"></g></svg>