<svg xmlns="http://www.w3.org/2000/svg" xmlns:xlink="http://www.w3.org/1999/xlink" id="Layer_1" x="0px" y="0px" viewBox="0 0 600 99" style="enable-background:new 0 0 600 99;" xml:space="preserve"><style type="text/css">	.st0{fill:#FFFFFF;}</style><g>	<path class="st0" d="M596.67,53.44c-1.78,0.61-11.82,2.76-26,3.5c-0.27,0.02-136.62,4.94-140.85,5.23  c-9.18,0.63-12.76,2.51-18.36,5.77c-4.08,2.4-14.31,9.09-31.66,13.44c-17.99,4.53-41.3,5.5-42.32,5.52  c-1.03,0.02,5.05-0.51,5.05-0.51c6.58-0.58,4.51-0.35,14.97-1.98c19.36-3.01,33.34-8.4,37.85-10.81c0.12-0.07,0.6-0.33,1.17-0.63  h0.02c6.02,0,5.67-1.6,5.67-1.6c-1.41,0.03-5.85,0.17-7.41,0.21c-5.44,0.15-11,0.3-12.39,0.3c-0.24-0.93-12.73-1.69-12.73-1.69  s28.28-0.08,31.06-0.07c0.33,0,0.63,0.01,0.93,0.02c2.12-1.21,4.48-2.66,6.75-4.18c0.03,0,0.05,0,0.07-0.01c6.55,0,6.1-1.8,6.1-1.8  c-7.02,0.18-20.11,0.34-22.45,0.27c-0.21-0.92-14.15-1.8-14.15-1.8s32.93-0.04,35.74-0.04c0.08,0,0.15,0.01,0.22,0.02  c6.31-2.92,14.09-3.25,18.9-3.32c2.86-0.04,121.84-2.51,138.08-2.83c5.25-0.3,17.48-1.1,25.38-3.09c0.86-0.22,1.61-0.41,2.26-0.57  c0.08-0.47-1.51-0.66-4.29-0.68l-39.69-0.37c-60.69-0.55-173.63-1.6-178.77-1.6h-1.23c-6.17-0.01-9-0.01-17.5,2.52l-2.27,0.7  c-5.51,1.69-13.07,4.01-19.78,4.27c-7.04,0.26-33.91,0.22-35.05,0.21c-1.13,0.01-28.01,0.08-35.03-0.18  c-6.71-0.26-14.27-2.58-19.79-4.27l-2.26-0.69c-8.51-2.54-11.32-2.54-17.5-2.53h-1.23c-5.15,0-118.09,0.52-178.77,1.09L5.7,51.6  c-2.71,0.02-4.29,0.21-4.27,0.66c0.64,0.15,1.4,0.34,2.25,0.56c7.9,2,20.14,2.81,25.39,3.1c16.24,0.31,135.21,3.3,138.07,3.34  c4.84,0.07,12.48,0.39,18.81,3.35l37.23-0.01c0,0-15.03,0.89-15.25,1.8c-0.22,0-0.56,0-0.94,0.02c-3.76,0.02-15.1-0.11-21.52-0.29  c0,0-0.45,1.8,6.09,1.8h0.02c2.31,1.55,4.7,3.01,6.86,4.23c0.55-0.03,1.22-0.07,2.02-0.07c2.77-0.01,30,0.07,30,0.07  s-12.59,0.77-12.82,1.69h-0.08c-1.49-0.01-6.96-0.16-12.32-0.3c-1.55-0.04-5.99-0.18-7.4-0.21c0,0-0.35,1.58,5.64,1.6  c0.57,0.3,1.05,0.56,1.17,0.63c4.5,2.41,18.49,7.81,37.85,10.81c10.48,1.62,8.4,1.4,14.98,1.98c0,0,6.07,0.54,5.04,0.51  c-1.02-0.01-24.34-0.98-42.34-5.52c-17.34-4.35-27.56-11.04-31.65-13.44c-5.6-3.27-9.17-5.14-18.36-5.77  c-4.22-0.29-140.54-5.72-140.82-5.74c-14.18-0.74-24.21-2.88-25.98-3.48c-0.77-0.27-1.4-0.49-1.94-0.69c0,0.36,0.94,1.36,1.76,2.09  c4.2,3.75,20.14,11.49,29.46,13.75c16.14,3.91,115.55,16.56,133.2,18.53l9.88,1.09c26.47,2.93,60.15,6.66,77.24,8.39  c6.11,0.62,8.09-0.1,9.65-0.54c1.56-0.44,15.09-6.43,37.4-6.43c21.71,0,35.8,5.97,37.37,6.41c1.57,0.44,3.54,1.16,9.66,0.54  c17.08-1.72,50.76-5.45,77.23-8.39l9.89-1.1c17.65-1.96,117.05-14.11,133.19-18.02c9.32-2.25,25.26-10,29.48-13.74  c0.77-0.71,1.75-1.71,1.75-2.08C598.03,52.97,597.42,53.19,596.67,53.44 M306.5,77.59h-6.56h-6.55v-0.01  c-19.78-0.04-39.34-0.27-45.02-1.68c-13.56-3.37-19.88-9.54-20.94-11.42c-0.96-1.69-0.81-1.85,0.86-1.85h63.86h15.59h63.87  c1.67,0,1.8,0.16,0.85,1.85c-1.05,1.88-7.38,8.04-20.93,11.42c-5.69,1.41-25.24,1.64-45.02,1.68V77.59z"></path>	<polygon class="st0" points="299.03,66.66 295.97,68.67 292.77,66.66 288.94,66.66 293.63,69.82 293.63,72.23 296.92,72.23   296.92,69.77 301.27,66.66  "></polygon>	<polygon class="st0" points="315.86,72.23 326.66,72.23 326.66,71.2 319.15,71.2 319.15,66.65 315.86,66.65  "></polygon>	<polygon class="st0" points="329.37,72.23 340.4,72.23 340.4,71.2 332.61,71.2 332.61,69.96 340.11,69.96 340.11,68.93   332.61,68.93 332.61,67.68 340.26,67.68 340.26,66.65 329.37,66.65  "></polygon>	<polygon class="st0" points="259.55,66.66 259.55,72.23 262.85,72.23 262.85,69.95 269.76,69.95 269.76,72.23 273.06,72.23   273.06,66.66 269.76,66.66 269.76,68.92 262.85,68.92 262.85,66.66  "></polygon>	<path class="st0" d="M275.82,72.25h3.48v-4.55c3-0.16,5.65,0.14,5.65,0.71c0,0.45-0.57,0.94-3.9,0.81  c0.79,0.59,4.18,3.03,4.18,3.03h3.71c0,0-3.29-1.96-4.23-2.49c2.22-0.15,3.6-0.79,3.6-1.49c0-0.78-1.16-1.58-4.98-1.58h-7.51V72.25  z"></path>	<path class="st0" d="M343.05,72.25h3.48v-4.55c3-0.16,5.65,0.14,5.65,0.71c0,0.45-0.58,0.94-3.9,0.81  c0.79,0.59,4.18,3.03,4.18,3.03h3.71c0,0-3.29-1.96-4.22-2.49c2.22-0.15,3.59-0.79,3.59-1.49c0-0.78-1.15-1.58-4.97-1.58h-7.51  V72.25z"></path>	<path class="st0" d="M302.16,68.05c0,1.03,0.97,1.51,3.33,1.81c0.46,0.06,1.14,0.14,2.47,0.28c1.2,0.12,1.95,0.23,1.95,0.57  c0,0.19-0.17,0.66-2.84,0.66c-2.35,0-4.28-0.35-4.68-0.44l-0.32,1.2c0.31,0.03,2.63,0.35,5.14,0.35c3.2,0,6.25-0.48,6.25-1.9  c0-0.98-1.06-1.51-3.3-1.77c-1-0.11-2.03-0.22-2.78-0.28c-1.06-0.09-1.72-0.22-1.72-0.57c0-0.3,0.44-0.49,2.55-0.49  c1.99,0,3.7,0.28,4.09,0.33l0.25-1.07c-0.54-0.07-2.98-0.34-5.33-0.34C305.22,66.38,302.16,66.62,302.16,68.05"></path>	<path class="st0" d="M243.86,69.35c0,2.03,3.74,3.03,7.9,3.03c2.25,0,4.3-0.21,4.83-0.25l0.32-1.15c-0.46,0.02-2.54,0.23-4.53,0.23  c-2.19,0-5.25-0.54-5.25-1.85c0-1.3,3.06-1.85,5.25-1.85c1.99,0,4.07,0.21,4.53,0.24l-0.32-1.15c-0.53-0.06-2.58-0.26-4.83-0.26  C247.59,66.32,243.86,67.32,243.86,69.35"></path>	<path class="st0" d="M211.18,73.35c-1.88-0.04-4.79-0.17-7.66-0.38c-6.04,0-5.68-1.61-5.68-1.61c1.41,0.04,5.86,0.18,7.4,0.21  c5.45,0.16,11.01,0.31,12.4,0.32c0.13,0.51,17.62,1.84,17.62,1.84S216.4,73.48,211.18,73.35"></path>	<path class="st0" d="M407.79,66.01c0.23-0.01,0.46-0.04,0.7-0.04c6.53,0,6.08-1.8,6.08-1.8c-7.03,0.19-20.11,0.32-22.44,0.26  c-1.21,1.18-17.33,2.16-17.33,2.16S402.87,66.38,407.79,66.01"></path>	<path class="st0" d="M388.86,73.35c1.87-0.04,4.79-0.17,7.65-0.38c6.04,0,5.68-1.61,5.68-1.61c-1.42,0.04-5.86,0.18-7.41,0.21  c-5.44,0.16-11,0.31-12.4,0.32c-0.14,0.51-17.62,1.84-17.62,1.84S383.64,73.48,388.86,73.35"></path>	<path class="st0" d="M281.17,25.73V15.52v-0.66l0.48-0.46c0.06-0.06,8.27-7.97,12.69-12.24h-3.54c-2.02,1.78-10.33,9.1-10.49,9.25  l-1.04,0.89l-1.02-0.92c0,0-2.9-2.45-5.69-4.82c-2.16-1.83-4.3-3.64-5.2-4.4h-9.08c4.57,4.15,12.9,11.7,13.67,12.4l0.01,0.01  l0.55,0.47v0.72c0,0.12,0.01,6.86,0.01,9.97H281.17z"></path>	<polygon class="st0" points="405.71,25.75 405.71,22.83 377.16,22.83 377.16,2.22 369.05,2.21 369.05,25.75  "></polygon>	<polygon class="st0" points="422.87,25.59 460.11,25.59 460.11,22.7 430.7,22.7 430.7,15.43 459.15,15.43 459.15,12.44   430.7,12.44 430.7,5.18 459.63,5.18 459.63,2.28 422.87,2.28  "></polygon>	<polygon class="st0" points="182.22,25.65 182.22,2.17 173.98,2.17 173.98,11.54 173.98,12.43 173.1,12.43 152.11,12.43   151.22,12.43 151.22,11.54 151.22,6.3 151.22,2.16 142.95,2.16 142.95,25.65 151.22,25.65 151.22,16.27 151.22,15.37 152.11,15.37   173.1,15.37 173.98,15.37 173.98,16.27 173.98,21.51 173.98,25.65  "></polygon>	<path class="st0" d="M244.22,25.65c-2.59-2.56-8.14-7.97-10.35-9.71l-1.54-1.22l1.99-0.2c6.99-0.76,8.96-3.4,9-6.1  c-0.02-1.45-0.71-2.9-2.97-4.15c-2.26-1.23-6.14-2.15-12.2-2.14h-22.08v23.53h8.26c0-2.33-0.01-9.22-0.01-14.22  c0-3.05,0-5.36,0.01-5.57l0.02-0.78l0.8-0.01c2.02-0.02,3.98-0.05,5.81-0.05c5.37,0.04,9.96-0.01,11.96,1.69  c0.76,0.53,1.28,1.35,1.29,2.28v0.01v0.07c0.04,1.18-0.7,2.54-2.49,3.27c-3.48,0.99-9.77,1.21-9.77,1.21  c3.4,3.51,11.27,10.65,12.69,12.09H244.22z"></path>	<path class="st0" d="M326.36,26.32c5.46,0,10.8-0.53,14.68-1.76c3.93-1.26,6.09-3.09,6.07-5.49c-0.02-1.85-0.72-3.09-2.41-4.22  c-1.71-1.11-4.46-1.94-8.23-2.47c-3.45-0.48-7.05-0.97-9.62-1.23c-1.85-0.21-3.39-0.43-4.56-0.83c-1.12-0.36-2.2-1.14-2.2-2.44  c-0.04-1.1,0.92-2.03,2.34-2.35c1.47-0.4,3.71-0.59,7.38-0.59c5.96,0,11.22,0.83,13.47,1.24l0.55-2.85  C340.91,2.93,333.5,2,326.39,2c-3.42,0-7.73,0.26-11.11,1.25c-3.43,1.02-5.56,2.59-5.53,5.05c0.03,1.98,0.66,3.18,2.31,4.3  c1.67,1.09,4.46,1.92,8.49,2.55c1.6,0.26,3.95,0.61,8.54,1.2c2.08,0.26,3.77,0.5,5.05,0.89c1.21,0.37,2.38,1.02,2.42,2.39  c0.05,0.65-0.41,1.87-1.94,2.53c-1.51,0.7-4.06,1.19-8.75,1.19c-7.14,0-13.12-1.14-15.56-1.68L309.57,25  C312.13,25.38,319,26.32,326.36,26.32"></path>	<path class="st0" d="M87.61,5.14c-4.36,2.08-6.92,4.98-6.92,8.83c0,3.84,2.56,6.75,6.92,8.83c4.34,2.05,10.34,3.1,16.68,3.09  c6.24,0,11.99-0.72,14.2-1.01l0.66-3.19c-2.44,0.27-7.8,0.88-12.97,0.88c-3.47-0.01-7.59-0.58-10.92-1.9  c-3.3-1.29-6.04-3.41-6.07-6.69c0.03-3.28,2.77-5.41,6.07-6.7c3.33-1.32,7.45-1.9,10.92-1.9c5.18,0,10.54,0.61,12.97,0.88  l-0.66-3.2c-2.22-0.29-7.96-1.01-14.2-1.01h-0.04C97.93,2.05,91.94,3.1,87.61,5.14"></path>	<path class="st0" d="M518.99,25.86c-2.59-2.56-8.14-7.97-10.35-9.71l-1.54-1.22l1.99-0.2c6.99-0.77,8.96-3.4,8.99-6.1  c-0.01-1.45-0.7-2.91-2.96-4.16c-2.26-1.23-6.13-2.14-12.22-2.14h-22.07v23.54h8.25V11.65V6.07l0.02-0.77l0.82-0.02  c2.01-0.02,3.96-0.05,5.81-0.05c5.36,0.04,9.95-0.02,11.96,1.69c0.76,0.52,1.28,1.35,1.29,2.28v0.01v0.07  c0.04,1.18-0.7,2.54-2.5,3.27c-3.48,0.99-9.77,1.21-9.77,1.21c3.4,3.51,11.27,10.65,12.69,12.09H518.99z"></path>	<path class="st0" d="M192.26,66.01c-0.23-0.01-0.46-0.04-0.69-0.04c-6.54,0-6.09-1.8-6.09-1.8c7.07,0.19,20.15,0.32,22.44,0.26  c1.22,1.18,17.32,2.16,17.32,2.16S197.19,66.38,192.26,66.01"></path></g></svg>