<svg xmlns="http://www.w3.org/2000/svg" xmlns:xlink="http://www.w3.org/1999/xlink" id="Layer_1" x="0px" y="0px" viewBox="0 0 405 33" style="enable-background:new 0 0 405 33;" xml:space="preserve"><style type="text/css">	.st0{fill-rule:evenodd;clip-rule:evenodd;fill:#FFFFFF;}</style><g>	<path class="st0" d="M2.5,26.05L2.78,5.57c0,0,0.01-1.73,0.99-2.5C4.83,2.24,6.59,2.4,6.59,2.4L44.3,2.38  c0,0,11.03-0.07,19.81,2.37c6.99,1.94,12.15,5.64,12.15,10.99c0,4.79-2.99,8.55-8.79,10.52c-8.86,3-21.85,2.68-21.85,2.68  L6.1,28.97C6.1,28.97,2.5,29.22,2.5,26.05 M18.94,22.07c0,0,0.21-12.6,0.21-12.77c0-0.17-0.02-1.26,1.44-1.26  c1.67,0,24.07-0.02,24.07-0.02s5.31,0.2,9.36,1.74c3.18,1.21,5.32,3.38,5.32,5.94c0,2.15-1.39,4.33-3.92,5.49  c-4.32,1.97-10.77,2.09-10.77,2.09l-24.33,0.02C20.31,23.31,18.94,23.34,18.94,22.07"></path>	<path class="st0" d="M122.74,2.02c1.49,0,40.09,0.05,40.09,13.67c0,10.32-14.79,12.93-26.4,13.59c-7.49,0.42-13.67,0.18-13.67,0.18  s-6.59,0.04-14.36-0.8c-10.99-1.19-24.29-3.82-24.29-12.97C84.11,0.83,121.25,2.02,122.74,2.02 M122.88,7.64  c3.95,0,23.02,0.35,23.02,8.15c0.02,8.39-17.8,7.9-23.02,7.9c-5.22,0-21.69-0.32-21.69-7.9C101.19,7.4,118.93,7.64,122.88,7.64"></path>	<path class="st0" d="M326.49,3.53v2.5c0,0,0.22,2-1.44,2h-41.08c0,0-14.71,0.07-14.71,7.67c0,7.6,12.46,7.6,16,7.6h23  c0,0,1.31-0.08,1.31-1.32v-2.41c0,0-0.15-1.07-1.46-1.07h-20.03c0,0-1.46,0.04-1.46-1.39c0-1.42,0.07-3.02,0.07-3.02  s0-1.24,1.54-1.24h34.74c0,0,3.37-0.27,3.37,2.84c0,3.1-0.1,8.51-0.1,9.87c0,1.36-0.35,3.39-3.76,3.39h-39.05  c0,0-15.62,0.31-24.6-3.76c-4.13-1.97-6.5-5.09-6.5-9.5c0-9.47,12.97-12.11,21.62-12.89c4.33-0.39,7.57-0.37,7.57-0.37  s43.41-0.03,43.75-0.03C325.61,2.41,326.49,2.44,326.49,3.53"></path>	<path class="st0" d="M400.01,2.43c0,0,1.66-0.11,1.66,1.1v2.5c0,0.99-0.2,2-1.58,2h-47.22c0,0-1.46,0.12-1.46,1.59l-0.05,1.69  c0,0,0.02,1.51,1.51,1.51h44.65c0,0,1.61-0.05,1.61,1.29v3.1c0,0,0.02,1.24-1.29,1.24h-44.82c-0.52,0-1.63,0.2-1.63,1.41  c0,1.21-0.02,2.31-0.02,2.31s-0.05,1.15,1.81,1.15h47.62c0,0,1.72-0.01,1.72,1.18v3.13c0,0.25,0.07,1.34-1.34,1.34H338.2  c-2.15,0-3.94-0.41-3.94-3.66c0-3.25,0.25-17.28,0.32-19.52c0.1-2.84,1.09-3.34,4.16-3.34H400.01z"></path>	<path class="st0" d="M170.64,26.05l0.28-20.48c0,0,0.01-1.73,0.99-2.5c1.06-0.82,2.82-0.67,2.82-0.67l37.71-0.02  c0,0,11.03-0.07,19.81,2.37c6.99,1.94,12.15,5.64,12.15,10.99c0,4.79-2.99,8.55-8.79,10.52c-8.86,3-21.85,2.68-21.85,2.68  l-39.52,0.03C174.24,28.97,170.64,29.22,170.64,26.05 M187.08,22.07c0,0,0.21-12.6,0.21-12.77c0-0.17-0.02-1.26,1.44-1.26  c1.67,0,24.07-0.02,24.07-0.02s5.3,0.2,9.36,1.74c3.18,1.21,5.32,3.38,5.32,5.94c0,2.15-1.39,4.33-3.92,5.49  c-4.32,1.97-10.77,2.09-10.77,2.09l-24.33,0.02C188.45,23.31,187.08,23.34,187.08,22.07"></path></g></svg>