<svg xmlns="http://www.w3.org/2000/svg" xmlns:xlink="http://www.w3.org/1999/xlink" id="Layer_1" x="0px" y="0px" viewBox="0 0 884.88 338" style="enable-background:new 0 0 884.88 338;" xml:space="preserve"><style type="text/css">	.st0{fill:#FFFFFF;}</style><g>	<path class="st0" d="M442.59,2C200.76,2,4.94,76.21,4.94,167.63s195.82,165.42,437.65,165.42c241.53,0,437.35-73.93,437.35-165.36  S684.12,2,442.59,2z M442.59,316.05c-231.95,0-420.44-66.02-420.44-148.42c0-82.07,188.49-148.98,420.44-148.98  c232.49,0,420.7,66.88,420.7,148.98c0,82.46-188.21,148.47-420.7,148.47V316.05z"></path>	<path class="st0" d="M442.59,31.12c-225.13,0-407.17,61.22-407.17,136.56c0,75.64,182,136.86,407.17,136.86  c224.88,0,407.44-61.22,407.44-136.86C850.02,92.35,667.53,31.12,442.59,31.12z M243.1,251.77c-24.56,0-46.33-16.07-46.85-44.85  c-0.28-17.5,13.83-38.94,40.07-45.44c3.1,0,4.24,1.14,4.24,2.83c0,1.13-1.14,2.54-3.67,3.67c-7.62,2.82-20.89,17.78-20.89,31.6  c0,10.44,6.5,22.01,17.5,24.56c2.88,0.6,5.82,0.79,8.75,0.56c27.36,0,58.11-30.75,91.42-77.6c-5.36,0.29-28.22,2.83-33.86,9.27  c-2.54,1.97-4.24,0.85-4.79-1.42c0.31-1.32,0.89-2.57,1.69-3.67c9.03-10.15,36.11-12.42,42.6-13.24  c24.32-37.28,55.29-61.05,63.83-62.76l-0.62-0.16c-21.72-5.08-41.47-9.27-57-9.27c-54.46,0-78.72,23.43-77.6,44.88  c0.57,8.74,7.62,14.39,18.07,12.42c11.28-1.97,27.08-12.71,31.03-22.01c0.61-1.56,2.37-2.32,3.93-1.71  c0.01,0.01,0.03,0.01,0.04,0.02c0.99,0.82,1.43,2.14,1.13,3.39c-1.42,11-18.35,41.47-47.66,41.47c-16.37,0-27.38-15.24-27.1-30.18  c0.29-27.94,28.78-56.15,99.04-56.15c14.95,0.05,29.86,1.38,44.58,3.97c18.9,3.39,66.03,11.29,104.4,11.85  c14.1,0,32.17,0.57,46.83-1.69c15.51-2.54,12.14-3.1,18.33-3.1c5.65,0,5.65,2.25,5.65,4.51c0,9.03-31.61,26.24-58.4,26.24  c-39.5,0-80.48-17.9-101.76-23.66c1.01,0.92,1.31,2.39,0.74,3.63c-1.26,1.64-2.67,3.16-4.24,4.51  c-5.64,5.08-24.83,17.49-45.71,52.76c12.29-0.79,24.53-2.21,36.68-4.24c-0.66-2.2-1.05-4.47-1.14-6.76  c0.85-12.14,7.94-19.47,16.93-18.06c4.79,0.7,8.37,4.75,8.47,9.58c0,4.81-3.67,11.85-7.33,15.24c-2.72,2.18-5.65,4.07-8.75,5.65  c0,3.1,4.24,5.64,7.94,5.92c-0.85,3.11-0.57,4.53-1.97,4.24c-8.47,0-11.91-8.18-11.91-8.18c-11.28,1.97-22.28,3.39-44.58,5.64  C295.01,236.82,277.51,251.77,243.1,251.77z M629.94,236.82c12.13-0.57,34.42-23.71,39.71-29.35c1.14-1.42,3.11-3.97,4.25-3.97  s3.38,1.13,3.38,2.82c0,1.13-2.54,5.36-4.51,7.94c-11.28,14.11-29.9,35.83-51.07,36.4c-10.44,0-14.39-4.25-15.81-12.42  c-4.79,4.22-21.18,11.56-37.81,11.56c-13.82-0.28-19.47-8.46-22.29-14.95c-2.91-6.67-3.51-14.13-1.69-21.18  c-7.61,3.97-14.68,4.51-24.83,4.24c-11.85-0.28-19.18-5.64-22.85-19.47c-13.54,24.83-14.11,25.68-27.93,51.63h-23.92l30.75-52.16  c3.35-5.81,5.82-12.08,7.35-18.61c0.66-3.01-1.25-5.99-4.26-6.65c-0.34-0.07-0.68-0.12-1.03-0.13c-3.97,0-10.44,3.97-16.67,9.88  c-9.92,10.71-19.09,22.09-27.47,34.05c-11,16.37-29.9,34.99-50.5,34.99c-14.96,0-28.5-8.17-31.32-23.97c0,0-1.42,3.65-14.68,11.28  c-1.13,0.57-3.97,2.25-4.79,1.69c-2.15-1.82-3.64-4.29-4.24-7.04c0.85,0.26,2.54-1.14,7.94-5.37  c10.44-7.94,12.69-14.11,12.69-14.11c2.54-5.36,7.06-13.82,10.17-19.75c8.46-16.93,23.14-34.14,47.11-34.99  c3.97,0,5.08,1.69,5.93,3.11c2.26,1.69,1.42,5.07,1.42,5.07c-14.33,2.25-27.16,10.18-35.56,22.01c-4.24,6.21-8.75,16.36-9.6,23.7  c-1.69,12.69,4.24,21.18,12.99,23.14c16.36,2.54,29.9-9.27,40.63-27.65c2.82-4.79,4.81-17.21,4.81-23.97  c-0.19-6.13-2.48-12.02-6.5-16.65c0-4.79,3.11-7.94,6.78-7.94c1.24-0.15,2.48,0.26,3.38,1.13c5.65,5.65,8.75,16.36,8.75,24.56  c0.09,2.83-0.09,5.66-0.56,8.46c11.85-14.39,26.81-33.01,38.39-36.68c2.14-0.92,4.46-1.3,6.78-1.13  c21.18-0.57,18.35,18.63,18.35,18.63c11.28-12.99,19.18-17.78,29.63-17.21c11.28,0.56,15.24,8.46,15.24,14.67  c-0.28,7.33-5.65,15.79-14.96,16.08c-8.18,0-12.97-3.97-15.51-11.29c-5.36,1.99-7.94,5.64-9.03,12.99  c-1.69,9.27,5.36,16.65,14.39,16.65c15.51,0,22.29-6.78,27.93-11.85c19.18-18.07,29.92-36.97,57.56-36.69  c16.65,0.29,20.89,13.54,23.71,19.18l36.4-61.5h22.29l-60.42,107.1c-1.13,2.25-3.97,6.49-3.67,9.88  C625.71,238.24,632.48,236.82,629.94,236.82z"></path>	<path class="st0" d="M607.96,170.49c-9.89-1.14-22.31,7.33-32.46,19.75c-5.08,6.2-10.44,18.06-11.28,25.15  c-1.14,7.04,0.83,14.11,3.38,16.08s13.83,7.94,31.32-9.88c9.88-9.88,19.47-25.96,19.47-25.96S633.11,173.19,607.96,170.49z"></path>	<path class="st0" d="M407.31,127.62c1.69-1.69,4.51-6.78,3.97-10.17c-0.29-1.69-1.13-3.67-3.11-3.38  c-4.24,0.83-6.76,2.82-7.94,7.06c-1.13,3.58-1.13,7.42,0,11C400.23,132.14,403.08,132.42,407.31,127.62z"></path></g></svg>