<svg xmlns="http://www.w3.org/2000/svg" xmlns:xlink="http://www.w3.org/1999/xlink" id="Layer_1" x="0px" y="0px" viewBox="0 0 287.5 58.06" style="enable-background:new 0 0 287.5 58.06;" xml:space="preserve"><style type="text/css">	.st0{fill:#FFFFFF;}	.st1{fill:none;}</style><g id="gmc_black_type">	<path class="st0" d="M2.34,16.39c0,6.23,0,15.8,0,25.41c0,9.58,6.05,15.32,16.59,15.32h52c10.9,0,17.81-5.24,17.81-14.82V22.78  h-43.2v12.5h28.22v4.54c0,3.31-1.93,4.23-4.47,4.23H21.9c-3.48,0-4.59-1.71-4.59-4.37V17.89c0-2.9,1.71-3.86,3.59-3.86h67.84V0.94  H18.8C8.04,0.94,2.34,7.17,2.34,16.39z"></path>	<path class="st0" d="M285.16,57.12V44.03h-66.85c-3.47,0-4.58-1.7-4.58-4.34V17.91c0-2.87,1.7-3.88,3.6-3.88h67.83V0.94h-69.97  c-10.75,0-16.43,6.23-16.43,15.45c0,6.23,0,15.8,0,25.41c0,9.58,6.03,15.32,16.56,15.32H285.16z"></path>	<polygon class="st0" points="166.55,0.94 144.15,40.6 143.35,40.6 120.95,0.94 97.93,0.94 97.93,57.12 112.9,57.12 112.9,15.92   113.69,15.92 136.82,57.12 150.68,57.12 173.81,15.92 174.6,15.92 174.6,57.12 189.57,57.12 189.57,0.94  "></polygon></g><rect x="42.93" y="0.17" class="st1" width="25.24" height="25.24"></rect><rect x="0.18" y="38.42" class="st1" width="25.24" height="25.24"></rect><rect x="262.26" y="38.42" class="st1" width="25.24" height="25.24"></rect><rect x="53.93" y="72.42" class="st1" width="25.24" height="25.24"></rect></svg>