<svg xmlns="http://www.w3.org/2000/svg" xmlns:xlink="http://www.w3.org/1999/xlink" id="Layer_1" x="0px" y="0px" viewBox="0 0 487.82 308.66" style="enable-background:new 0 0 487.82 308.66;" xml:space="preserve"><style type="text/css">	.st0{fill:#FFFFFF;}</style><path class="st0" d="M56.23,259l7.39,0.87c3.32,0.37,3.68,3.15,3.68,4.92v8.76H33.21v-8.76c0-1.77,0.36-4.55,3.68-4.92l7.39-0.87 v-7.49H0V259l7.39,0.87c3.32,0.37,3.68,3.15,3.68,4.92v28.69c0,1.77-0.36,4.55-3.68,4.93L0,299.28v7.48h44.28v-7.48l-7.39-0.87 c-3.32-0.38-3.68-3.16-3.68-4.93v-8.75H67.3v8.75c0,1.77-0.36,4.55-3.68,4.93l-7.39,0.87v7.48h44.29v-7.48l-7.4-0.87 c-3.32-0.38-3.68-3.16-3.68-4.93v-28.69c0-1.77,0.36-4.55,3.68-4.92l7.4-0.87v-7.49H56.23V259z"></path><path class="st0" d="M351.59,251.51H296.9V259l6.54,0.69c2.32,0.28,3.85,1.28,3.85,4.5v29.29c0,1.77-0.36,4.55-3.67,4.93l-7.4,0.87 v7.48h55.37c19.8,0,36.1-8,36.1-27.62S371.39,251.51,351.59,251.51z M347.59,296.17H329V262.1h18.55c10.94,0,14.66,5.18,14.66,17 s-3.71,17.07-14.65,17.07L347.59,296.17z"></path><path class="st0" d="M480.79,298.49c-3.51-0.41-4.61-2.67-5.7-4.34l-25.49-39c-1.84-2.81-3.16-3.68-5.89-3.68h-42V259l10,1.14 c1.58,0.31,2.62,1.84,2.31,3.42c-0.09,0.45-0.28,0.88-0.56,1.24l-18.83,30.64c-0.72,1.58-2.18,2.71-3.89,3l-7.5,0.85v7.48h35.39 v-7.49l-6.1-0.62c-2.59-0.28-4-2.09-2.7-4.21l2.83-4.61h34l2.51,3.82c2.19,3.35-0.58,4.72-3,5l-6.26,0.64v7.49h47.88v-7.48 L480.79,298.49z M418.71,280.06l10.46-17l11.12,17H418.71z"></path><path class="st0" d="M257.36,259l7.4,0.87c3.31,0.37,3.68,3.15,3.68,4.92v27.64l-29.26-38.57c-1.31-1.77-2.46-2.35-5.6-2.35h-38V259 l7.4,0.87c3.31,0.37,3.68,3.15,3.68,4.92v28.69c0,1.77-0.37,4.55-3.68,4.93l-7.4,0.87v7.48H231v-7.48l-7.4-0.87 c-3.31-0.38-3.67-3.16-3.67-4.93v-27.64l29.23,38.57c1.33,1.78,2.47,2.35,5.61,2.35h26.92v-42c0-1.77,0.36-4.55,3.68-4.92l7.39-0.87 v-7.49h-35.4V259z"></path><path class="st0" d="M148,249.61c-36,0-45.26,15.74-45.26,29.53S112,308.66,148,308.66s45.26-15.74,45.26-29.52 S183.93,249.61,148,249.61z M148,298.13c-13.94,0-19.75-5.84-19.75-19s5.81-19,19.75-19s19.76,5.85,19.76,19 S161.91,298.13,148,298.13z"></path><path class="st0" d="M305.24,18.23c-6.11,27.17-8.5,39.66-13.46,59.33C287,96.44,283.35,114,277,122.46s-15.09,10.54-21,11.16 c-3.93,0.42-7.88,0.59-11.83,0.52c-3.95,0.07-7.9-0.1-11.83-0.52c-5.87-0.66-14.49-2.54-20.95-11.16s-10-26-14.79-44.9 c-4.95-19.67-7.36-32.16-13.45-59.33c0,0-6.08,0.23-8.77,0.42c-3.64,0.26-6.49,0.57-9.59,1c0,0,3.5,55.89,5.08,79.57 c1.67,24.91,4.59,66.87,7.34,98.56c0,0,5.1,0.82,13.58,1.3c8.91,0.51,12.88,0.57,12.88,0.57c3.67-14,8.2-33.33,13.36-41.59 c4.18-6.72,10.64-7.44,14.28-7.94c4.25-0.6,8.55-0.88,12.84-0.83h0.05c4.29-0.05,8.58,0.23,12.83,0.83 c3.66,0.5,10.1,1.22,14.29,7.94c5.15,8.26,9.69,27.63,13.36,41.59c0,0,4-0.06,12.87-0.57c8.48-0.48,13.59-1.3,13.59-1.3 c2.74-31.69,5.67-73.65,7.33-98.56c1.58-23.68,5.08-79.57,5.08-79.57c-3.11-0.41-5.95-0.72-9.59-1 C311.31,18.46,305.24,18.23,305.24,18.23z"></path><path class="st0" d="M375.65,51.22c-3.61-35.49-27.29-43-48.08-46.48C317.08,3,298.47,1.49,286.53,1c-10.42-0.67-35-1-42.32-1 s-31.9,0.34-42.33,1c-11.93,0.48-30.55,2-41,3.73c-20.79,3.49-44.47,11-48.08,46.48c-1.01,11.93-1.37,23.9-1.09,35.87 c0.27,16.11,1.39,32.2,3.34,48.2c0.76,7.21,3.78,28.91,7.65,40.14c5.31,15.42,10.09,19.91,15.73,24.5 c10.29,8.39,27.23,11,30.85,11.62c19.13,3.44,57.86,4.06,75,4s55.83-0.6,75-4c3.62-0.65,20.57-3.23,30.86-11.62 c5.63-4.59,10.41-9.08,15.73-24.5c3.87-11.23,6.88-32.93,7.64-40.14c1.96-16,3.07-32.09,3.33-48.2 C377.09,75.11,376.69,63.14,375.65,51.22z M362.65,110.85c-2.1,28.35-4.62,45.36-8.23,57.62c-3.17,10.73-7.09,17.95-12.82,23.13 c-9.57,8.65-22.74,10.51-30.46,11.67c-16.7,2.47-44.82,3.33-66.92,3.34s-50.21-0.87-66.91-3.34c-7.73-1.16-20.9-3-30.47-11.67 c-5.73-5.18-9.65-12.4-12.81-23.13c-3.62-12.26-6.14-29.27-8.24-57.62c-1.26-17.09-1-44.79,0.91-59.67 c2.83-22.2,13.85-33.37,37.46-37.58c13.2-2.11,26.52-3.45,39.88-4c11.27-0.76,29.82-1.14,40.18-1c10.36-0.1,28.91,0.28,40.18,1 c13.36,0.55,26.68,1.89,39.88,4c23.61,4.21,34.62,15.4,37.46,37.58C363.64,66.06,363.91,93.76,362.65,110.85L362.65,110.85z"></path></svg>