<svg xmlns="http://www.w3.org/2000/svg" xmlns:xlink="http://www.w3.org/1999/xlink" id="RGB" x="0px" y="0px" viewBox="0 0 271.67 160.99" style="enable-background:new 0 0 271.67 160.99;" xml:space="preserve"><style type="text/css">	.st0{fill:#FFFFFF;}</style><g>	<path class="st0" d="M137.04,99.86c52.25,0,94.58-21.68,94.58-48.43S189.29,2.99,137.04,2.99c-52.24,0-94.59,21.68-94.59,48.43  S84.8,99.86,137.04,99.86z M154.84,76.09c-1.57,3.66-4.29,11.47-10.53,14.58c-1.98,0.92-4.13,1.41-6.32,1.45  c-0.46,0.01-0.8,0-0.94,0c-16.01,0.13-31.95-2.09-47.32-6.57c-0.11-0.04-0.42-0.16-0.52-0.19c-1.26-0.42-1.9-1-1.9-1.71  c0.03-0.6,0.31-1.16,0.78-1.54c0.19-0.2,0.48-0.44,0.86-0.76c3.14-2.62,12.6-9.48,30.43-16.29c7.22-2.94,14.66-5.32,22.25-7.1  C146.44,56.95,164.25,54.24,154.84,76.09L154.84,76.09z M202.64,27.27c0.29-0.64,0.89-1.07,1.59-1.13c0.71,0,1.4,0.22,1.98,0.64  c11.1,6.84,17.69,15.37,17.69,24.62c0,16.71-21.48,31.06-52.18,37.34c-1.98,0.38-3.28,0.37-3.74-0.13c-0.35-0.44-0.35-1.06,0-1.5  c0.24-0.4,0.51-0.78,0.82-1.13c16.72-19.72,29.46-48.79,33.08-57.18C202.16,28.22,202.43,27.65,202.64,27.27L202.64,27.27z   M119.52,26.66c1.57-3.66,4.29-11.47,10.53-14.57c1.98-0.92,4.13-1.41,6.32-1.45c0.47-0.02,0.8,0,0.93,0  c16.01-0.13,31.95,2.09,47.32,6.57c0.1,0.03,0.42,0.15,0.52,0.18c1.26,0.42,1.9,1,1.9,1.72c-0.03,0.6-0.32,1.16-0.78,1.54  c-0.19,0.19-0.48,0.44-0.86,0.76c-3.13,2.63-12.6,9.47-30.41,16.29c-7.22,2.94-14.67,5.31-22.26,7.09  C127.92,45.8,110.11,48.51,119.52,26.66L119.52,26.66z M102.37,14.08c1.97-0.38,3.27-0.38,3.73,0.12c0.34,0.44,0.33,1.05,0,1.49  c-0.24,0.4-0.52,0.78-0.82,1.13C88.55,36.55,75.82,65.62,72.2,74.02c-0.27,0.58-0.55,1.15-0.76,1.53  c-0.28,0.64-0.89,1.07-1.58,1.13c-0.71,0-1.4-0.23-1.98-0.64c-11.1-6.84-17.7-15.38-17.7-24.62  C50.17,34.71,71.66,20.36,102.37,14.08z"></path>	<polygon class="st0" points="27.93,119.22 27.93,133.99 11.19,133.99 11.19,119.22 1.98,119.22 1.98,157.97 11.19,157.97   11.19,142.4 27.93,142.4 27.93,157.97 37.16,157.97 37.16,119.22 36.69,119.22  "></polygon>	<polygon class="st0" points="70.97,119.22 61.33,134.57 51.68,119.22 40.8,119.22 56.72,144.56 56.72,157.97 65.94,157.97   65.94,144.56 81.86,119.22 81.01,119.22  "></polygon>	<path class="st0" d="M111.52,119.22v28.41c0.02,1.06-0.82,1.93-1.87,1.95c-0.03,0-0.06,0-0.09,0H94.78v-30.36h-9.21v38.75h27.25  c4.05,0.33,7.59-2.68,7.92-6.73c0.03-0.4,0.03-0.79,0-1.19v-30.83H111.52z"></path>	<path class="st0" d="M156.55,119.22h-27.26v38.75h9.22v-30.36h14.8c1.06-0.02,1.94,0.83,1.96,1.89c0,0.02,0,0.04,0,0.05v28.41h9.21  v-30.82c0.32-4.06-2.72-7.61-6.79-7.93C157.31,119.19,156.93,119.19,156.55,119.22L156.55,119.22z"></path>	<path class="st0" d="M200.27,119.22h-27.26v38.75h27.26c4.05,0.32,7.6-2.71,7.91-6.76c0.03-0.39,0.03-0.77,0-1.16v-22.9  c0.32-4.06-2.72-7.61-6.78-7.93C201.03,119.19,200.65,119.19,200.27,119.22L200.27,119.22z M198.97,129.63v17.95  c0.03,1.08-0.82,1.98-1.9,2c-0.02,0-0.05,0-0.07,0h-14.77v-21.97h14.72c1.07-0.05,1.97,0.78,2.02,1.85  C198.98,129.52,198.98,129.57,198.97,129.63z"></path>	<path class="st0" d="M224.26,119.22c-4.06-0.31-7.61,2.73-7.92,6.8c-0.03,0.38-0.03,0.76,0,1.13v30.82h9.2v-11.98h16.75v11.98h9.21  v-38.75H224.26z M242.29,127.61v9.99h-16.75v-8.02c-0.01-1.08,0.87-1.96,1.95-1.97c0.01,0,0.01,0,0.02,0L242.29,127.61z"></path>	<rect x="260.47" y="119.22" class="st0" width="9.22" height="38.75"></rect></g></svg>