<svg xmlns="http://www.w3.org/2000/svg" xmlns:xlink="http://www.w3.org/1999/xlink" id="Layer_1" x="0px" y="0px" viewBox="0 0 571.7 221.8" style="enable-background:new 0 0 571.7 221.8;" xml:space="preserve"><style type="text/css">	.st0{fill:#FFFFFF;}</style><g>	<g>		<g>			<g>				<rect y="176.5" class="st0" width="8.6" height="45.3"></rect>			</g>			<g>				<rect x="248.2" y="176.5" class="st0" width="8.6" height="45.3"></rect>			</g>			<g>				<polygon class="st0" points="162.2,221.8 162.2,176.5 196.6,176.5 196.6,182.8 170.3,182.8 170.3,196.6 189.1,196.6      189.1,202.9 170.3,202.9 170.3,221.8     "></polygon>			</g>			<g>				<polygon class="st0" points="487.2,221.8 487.2,182.8 471.6,182.8 471.6,176.5 511.2,176.5 511.2,182.8 495.5,182.8      495.5,221.8     "></polygon>			</g>			<g>				<rect x="411" y="176.5" class="st0" width="8.6" height="45.3"></rect>			</g>			<g>				<rect x="563.1" y="176.5" class="st0" width="8.6" height="45.3"></rect>			</g>			<polygon class="st0" points="347.9,221.8 321.5,189.7 321.5,221.8 313.4,221.8 313.4,176.5 319.7,176.5 346.3,208.7 346.3,176.5     354.4,176.5 354.4,221.8    "></polygon>			<polygon class="st0" points="99.7,221.8 73.3,189.7 73.3,221.8 65.2,221.8 65.2,176.5 71.6,176.5 98.1,208.7 98.1,176.5     106.2,176.5 106.2,221.8    "></polygon>		</g>		<path class="st0" d="M285.8,3c-56.1,0-101.4,23.3-101.4,51.3c0,15.9,18.5,28.3,46.4,35.2l48.8-58.1h6.1l-42.3,84.7   c-46-8.2-78.8-29.6-78.8-55.6C164.8,27,219,0,285.8,0s121.1,27,121.1,60.5c0,26-32.8,47.4-78.8,55.6l-42.3-84.7h6.1l48.8,58.1   c28-6.9,46.4-19.3,46.4-35.2C387.2,26.3,342,3,285.8,3z"></path>	</g></g></svg>