<svg xmlns="http://www.w3.org/2000/svg" xmlns:xlink="http://www.w3.org/1999/xlink" id="Layer_1" x="0px" y="0px" viewBox="0 0 405 164" style="enable-background:new 0 0 405 164;" xml:space="preserve"><style type="text/css">	.st0{fill:#FFFFFF;}	.st1{fill-rule:evenodd;clip-rule:evenodd;fill:#FFFFFF;}</style><g>	<path class="st0" d="M52.24,133.19c-32.86,0-50.24-15.56-50.24-45V72.15h32.07v15.68c0,8.59,5.58,17.82,17.82,17.82  c11.81,0,18.87-6.53,18.87-17.47V2h33.11v85.49c0,6.24-1.15,18.22-8.84,28.38C86.34,127.36,71.94,133.19,52.24,133.19"></path>	<path class="st0" d="M153.8,37.93c25.48,0,47.82,9.77,47.82,54.79h-60.38c0,14.31,5.93,20.24,16.41,20.24  c10.47,0,13.96-8.38,13.96-8.38h29.67c0,12.91-17.8,30.36-44.67,30.02c-30.71,0-45.72-22.69-45.72-46.07S124.14,37.93,153.8,37.93   M171.95,74.57c0-8.72-4.88-17.1-16.05-17.1c-10.82,0-14.66,7.68-14.66,17.1H171.95z"></path>	<path class="st0" d="M250.83,37.93c25.48,0,47.81,9.77,47.81,54.79h-60.38c0,14.31,5.93,20.24,16.4,20.24  c10.47,0,13.96-8.38,13.96-8.38h29.66c0,12.91-17.8,30.36-44.67,30.02c-30.71,0-45.72-22.69-45.72-46.07S221.16,37.93,250.83,37.93   M268.98,74.57c0-8.72-4.88-17.1-16.05-17.1c-10.82,0-14.66,7.68-14.66,17.1H268.98z"></path>	<path class="st0" d="M306.28,161.83V41.42h30.02c0,0,0,10.58,0,13.72c1.08-2.32,1.85-3.93,4.19-6.74  c2.03-2.44,7.68-9.42,22.69-9.42c15.01,0,38.39,10.47,38.39,47.47c0,28.62-13.96,49.56-38.04,49.56c-13.26,0-19.21-4.62-22.69-7.33  c-2.22-1.73-2.93-2.52-4.19-4.19c0,2.44,0,37.35,0,37.35H306.28z M335.95,87.49c-0.35,17.8,3.49,27.22,18.15,27.22  c14.66,0,16.75-16.05,16.75-28.27s-2.79-24.08-18.15-24.08C343.28,62.36,336.3,69.69,335.95,87.49"></path>	<path class="st1" d="M392.98,162c-2.52,0-4.69-0.91-6.46-2.69c-1.76-1.78-2.65-3.96-2.65-6.48c0-2.5,0.9-4.67,2.68-6.45  c1.77-1.77,3.93-2.66,6.44-2.67c2.52,0,4.7,0.9,6.47,2.67c1.78,1.77,2.68,3.94,2.68,6.45c0,2.52-0.9,4.7-2.67,6.49  C397.68,161.1,395.5,162,392.98,162 M392.98,145.25c-2.07,0-3.87,0.75-5.34,2.23c-1.46,1.47-2.2,3.27-2.2,5.35  c0,2.1,0.74,3.91,2.19,5.39c1.46,1.48,3.26,2.23,5.35,2.23c2.09,0,3.89-0.75,5.35-2.23c1.46-1.48,2.2-3.29,2.2-5.39  c0-2.08-0.74-3.88-2.2-5.35C396.86,146,395.07,145.25,392.98,145.25 M395.29,157.89l-0.06-0.22c-0.01-0.03-0.02-0.07-0.03-0.12  l-0.04-0.33v-0.8c0-1.07-0.29-1.79-0.85-2.12c-0.34-0.2-0.96-0.29-1.85-0.29h-1.2v3.89h-2.06v-10.18h3.61  c1.24,0,2.16,0.12,2.75,0.37c1.08,0.45,1.63,1.34,1.63,2.64c0,0.93-0.35,1.63-1.04,2.08c-0.22,0.14-0.49,0.26-0.81,0.35  c0.48,0.18,0.86,0.47,1.13,0.86c0.38,0.55,0.57,1.09,0.57,1.62v0.72c0,0.22,0.01,0.47,0.03,0.72c0.02,0.32,0.05,0.42,0.07,0.45  l0.18,0.36H395.29z M392.67,152.47c0.71,0,1.24-0.07,1.59-0.21c0.61-0.24,0.91-0.7,0.91-1.39c0-0.66-0.19-1.08-0.58-1.3  c-0.4-0.23-1.08-0.35-2.01-0.35h-1.32v3.24H392.67z"></path></g></svg>