<svg xmlns="http://www.w3.org/2000/svg" xmlns:xlink="http://www.w3.org/1999/xlink" id="LOGO" x="0px" y="0px" viewBox="0 0 678.99 160" style="enable-background:new 0 0 678.99 160;" xml:space="preserve"><style type="text/css">	.st0{fill:#FFFFFF;}</style><path class="st0" d="M393.35,141c0,1.24,0.39,1.94,1.12,1.94c0.59-0.04,1.16-0.26,1.63-0.62L605.53,6.33 c3.53-2.48,7.76-3.77,12.07-3.67h46.09c7.09,0,11.81,4.72,11.81,11.81v87.86c0,10.63-2.36,16.75-11.8,22.43l-55.9,33.56 c-0.55,0.4-1.2,0.64-1.87,0.69c-0.68,0-1.3-0.52-1.3-2.42V53.96c0-1.12-0.39-1.97-1.14-1.97c-0.59,0.05-1.15,0.26-1.63,0.6 l-153.1,99.38c-3.45,2.4-7.55,3.66-11.75,3.62H335.53c-7.07,0-11.8-4.71-11.8-11.8V17.25c0-0.92-0.42-1.77-1.12-1.77 c-0.59,0.04-1.16,0.25-1.64,0.6L219.99,76.73c-1.01,0.6-1.28,1.11-1.28,1.6c0,0.49,0.17,0.84,0.88,1.56L291.71,152 c0.95,0.96,1.61,1.7,1.61,2.45s-1.05,1.24-2.29,1.24h-65.26c-5.11,0-9.06-0.78-11.81-3.53l-43.73-43.73 c-0.3-0.4-0.76-0.65-1.25-0.71c-0.48,0.04-0.95,0.21-1.35,0.48l-73.17,43.96c-3.48,2.36-7.6,3.59-11.81,3.53H15.31 c-7.09,0-11.81-4.71-11.81-11.8V57.62C3.49,47,5.87,40.9,15.31,35.24L71.48,1.49C71.93,1.19,72.46,1.02,73,1 c0.85,0,1.31,0.89,1.31,2.88v115.34c0,1.21,0.33,1.77,1.12,1.77c0.61-0.08,1.18-0.32,1.67-0.69L266.9,6.24 c3.68-2.51,8.08-3.75,12.53-3.54h102.13c7.09,0,11.8,4.72,11.8,11.81V141z"></path></svg>