<svg xmlns="http://www.w3.org/2000/svg" xmlns:xlink="http://www.w3.org/1999/xlink" id="Lockup" x="0px" y="0px" viewBox="0 0 1218.77 227.95" style="enable-background:new 0 0 1218.77 227.95;" xml:space="preserve"><style type="text/css">	.st0{fill:#FFFFFF;}</style><g>	<path class="st0" d="M223.38,15.08l-6.65,10.04c44.61,18.34,62.62,51.61,62.62,87.32c0,17.83-4.82,33.98-14.22,33.98H148.19  c-15.94,0-20.67-5.73-13.52-19.83c12.8-25.25,51.12-73.53,74.73-102.54c3.45-4.3,6.29-10.92-6.11-14.24  C190.61,6.41,170.11,5,152.74,5C64.8,4.93,3.5,52.48,3.5,113.77c0,56.44,53.16,109.18,149.09,109.18  c42.36,0,94.29-11.91,123.79-45.3h-25.49c-28.67,25.93-66.15,31.84-98.16,31.84c-77.41,0-126.33-40.14-126.33-95.65  c0-51.15,55.44-97.1,125.37-97.1c8.37,0,11.1,1.81,2.25,12.79c-17.88,22.13-49.83,66.12-64.84,91.89  c-16.08,27.61,0.33,50.06,36.46,50.06h146.22c9.03,0,14.16-5.16,19.42-14.49c7.21-13.26,10.93-28.13,10.81-43.22  C302.16,72.21,270.96,33.97,223.38,15.08z"></path>	<path class="st0" d="M1177.89,105.77h-99.2c3.21-12.66,13.07-21.4,31.54-21.4h94.9V63.08h-100.88c-57.52,0-71.21,40.87-71.21,63.99  h122.86c16.86,0,16.86,22.74,0.57,22.74h-135.8V63.08h-40.9v86.76h-67.84c-18.19,0-25.8-8.72-25.8-22.19c0-16.26,0-64.51,0-64.51  h-65.59l-58.58,36.89l-50.48-36.94H566.21c-42.06,0-71.94,24.56-75.41,55.29h27.24c-11.01,7.17-19.42,18.77-24.11,31.67h-85.89  c-16.21,0-23.77-8.43-23.77-24.28V63.08h-41.01v53.3c0,33.86,18.49,55.14,60.11,55.14h286.41l58.78-37.07l50.73,37.07h60.5  L781.13,114l63.95-40.27v60.91c0,18.88,24.49,36.87,46.75,36.87h286.27C1227.85,171.51,1227.55,105.77,1177.89,105.77z   M682.44,150.04H543.39c1.43-11.61,7.44-23.17,26.41-23.17h86.19v-21.22H541.29c1.98-8.76,10.91-21.23,31.54-21.23h91.13V72.64  l65.44,47.8L682.44,150.04z"></path></g></svg>