<svg xmlns="http://www.w3.org/2000/svg" xmlns:xlink="http://www.w3.org/1999/xlink" id="Artwork" x="0px" y="0px" viewBox="0 0 841.89 448" style="enable-background:new 0 0 841.89 448;" xml:space="preserve"><style type="text/css">	.st0{fill:#FFFFFF;}</style><g>	<g>		<g>			<path class="st0" d="M177.64,206.24l68.21-0.02l8.24-23.83h-39.65l26.2-76.1h-34.21l-0.85,2.57l1.71,1.7    c1.86,1.82,1.79,3.97,0.18,8.6L177.64,206.24z M252.93,206.2h29.01l12.57-22.09h30.05l0.3,22.09h26.33l-5.68-99.91h-39.42    l-0.88,2.57l1.27,1.27c2.08,2.03,1.22,4.96-6.45,17.14L252.93,206.2z M322.75,133.92h0.91l0.47,30.19h-18.4L322.75,133.92z     M357.36,206.2h25.07l21.86-64.66l12.79,64.66h25.09l34.2-99.94l-26.22,0.04l-18.27,54.33l-10.43-54.33H386.1l-0.86,2.57    l1.73,1.7c1.86,1.82,1.77,3.97,0.19,8.6L357.36,206.2z M488.48,119.17l-29.84,87.07h44.03c18.88,0,29.64-4.18,38.39-13.55    c10.96-11.6,20.99-41.79,20.66-58.4c-0.32-16.95-11.27-28-34.29-28h-40.01l-0.83,2.57l1.74,1.7    C490.15,112.39,490.08,114.54,488.48,119.17z M512.45,130h10.92c7.44,0,11.55,2.49,11.65,8.26c0.05,3.72-0.94,8.8-4.8,19.77    c-3.41,9.8-6.13,15.48-10.01,19.65c-3.1,3.27-7.24,4.73-16.73,4.73h-9.13L512.45,130z M654.62,142.13h-66.5l-8.66,23.8h46.09    L573.2,183.7l-3.23,8.52l75.43-24.81L654.62,142.13z M715.6,66.17C636.75,25.43,532.11,3,420.94,3    C309.78,3,205.13,25.43,126.3,66.17C79.61,90.3,1.27,142.9,1.27,224.01c0,81.08,78.34,133.7,125.03,157.83    C205.11,422.57,309.75,445,420.94,445c111.19,0,215.83-22.43,294.66-63.15c46.7-24.14,125.02-76.73,125.02-157.83    C840.62,142.89,762.3,90.3,715.6,66.17z M705.35,362.01c-75.71,39.12-176.71,60.67-284.41,60.67    c-107.69,0-208.66-21.55-284.39-60.67c-72.81-37.64-112.95-86.66-112.95-138c0-51.38,40.14-100.4,112.95-138.01    c75.72-39.11,176.7-60.69,284.39-60.69c107.71,0,208.7,21.58,284.41,60.69c72.83,37.61,112.93,86.63,112.93,138.01    C818.28,275.35,778.19,324.37,705.35,362.01z M486.74,227.86l-36.58,71.85h-0.77l-1.85-71.85h-30.6l-1.2,2.59l2.63,1.59    c2.53,1.79,3.24,3.6,3.57,8.59l4.14,87.19h34.1l55.02-99.96H486.74z M648.77,227.86H605.6l-0.84,2.59l1.73,1.71    c1.85,1.82,1.76,3.96,0.18,8.59l-30.18,87.07h27.59l11.77-34.55h9.33l10.38,34.55h27.66l-12.99-35.36    c7.54-1.23,11.33-3.39,15.11-6.77c5.21-4.75,8.82-11.41,11.79-21.23c4.36-14.24,1.73-22.37-1.06-26.56    C672.24,232.16,664.12,227.86,648.77,227.86z M651.16,264.14c-1.72,4.28-3.63,5.3-6.07,6.31c-1.71,0.66-5.19,0.89-8.58,0.89    h-13.16l7.11-20.66h15.93c4.74,0,6.71,2.47,6.75,5.3C653.18,257.79,652.33,261.08,651.16,264.14z M376.23,226.63h-3.17    c-18.84,0-29.59,5.08-38.43,14.45c-10.98,11.62-21.3,43.02-21.1,59.65c0.2,16.94,11.17,28.68,34.2,28.68h3.37    c18.89,0,29.64-5.08,38.47-14.46c10.98-11.64,21.08-43.03,20.88-59.63C410.24,238.38,399.28,226.63,376.23,226.63z     M377.83,279.61c-3.43,9.82-6.12,16.15-10.1,20.32c-3.12,3.27-7.24,5.63-16.74,5.63c-7.44,0-11.58-3.04-11.58-8.8    c-0.05-3.72,0.95-9.37,4.94-20.34c3.44-9.82,6.12-16.14,10.11-20.32c3.08-3.27,7.22-5.63,16.72-5.63    c7.44,0,11.58,3.04,11.57,8.78C382.82,263.01,381.81,268.65,377.83,279.61z M570.54,287.73l7.64-20.91h-35.13l5.44-15.95h38.06    l8.36-23.07h-71.84l-1,2.94l1.71,1.69c1.86,1.8,1.78,3.94,0.18,8.59l-29.93,86.77h67.14l8.11-23.22H530.1l5.77-16.83H570.54z     M212.33,240.75l-75.43,24.8l-9.21,25.28h66.52l8.66-23.82h-46.11l52.34-17.72L212.33,240.75z M698.97,98.33    C616.26,55.56,513.28,39.2,420.94,39.2c-92.34,0-195.3,16.38-278.04,59.13c-46.46,24-105.43,67.3-105.43,125.69    c0,58.34,58.97,101.67,105.43,125.69c82.74,42.72,185.72,59.1,278.04,59.1c92.34,0,195.32-16.35,278.03-59.1    c46.48-24.02,105.44-67.35,105.44-125.69C804.42,165.63,745.47,122.32,698.97,98.33z M694.75,341.49    c-81.47,42.08-182.79,58.07-273.81,58.07c-91.01,0-192.31-15.99-273.8-58.07c-43.12-22.29-100.42-63.37-100.42-117.48    c0-54.16,57.3-95.2,100.42-117.48c81.49-42.08,182.78-58.08,273.8-58.08c91.02,0,192.34,15.97,273.81,58.08    c43.15,22.28,100.44,63.31,100.44,117.48C795.18,278.15,737.88,319.21,694.75,341.49z M281.4,227.86h-43.16l-0.87,2.59l1.75,1.71    c1.84,1.82,1.77,3.96,0.16,8.59l-30.15,87.07h27.56l11.79-34.57l9.33,0.01l10.37,34.55h27.69l-13.03-35.36    c7.56-1.23,11.36-3.39,15.15-6.77c5.19-4.75,8.8-11.41,11.78-21.23c4.34-14.24,1.72-22.37-1.08-26.56    C304.83,232.16,296.73,227.86,281.4,227.86z M283.77,264.14c-1.72,4.28-3.62,5.3-6.09,6.31c-1.67,0.66-5.19,0.89-8.59,0.89    h-13.16l7.16-20.66h15.91c4.76,0,6.71,2.47,6.77,5.3C285.79,257.79,284.96,261.08,283.77,264.14z"></path>		</g>	</g></g></svg>