<svg xmlns="http://www.w3.org/2000/svg" xmlns:xlink="http://www.w3.org/1999/xlink" id="Layer_1" x="0px" y="0px" viewBox="0 0 3456 1545.71" style="enable-background:new 0 0 3456 1545.71;" xml:space="preserve"><style type="text/css">	.st0{fill:#FFFFFF;}</style><g id="XMLID_7_">	<path class="st0" d="M1278.88,943.28h-66.68V602.29h99.24l86.94,272.35l86.16-272.35h99.11v340.99h-68.65V690.94l-79.89,252.34  h-74.4l-81.85-254.3V943.28 M1661.06,602.29h70.6v340.99h-70.6V602.29z M1876.79,943.28h-67.72V602.29h83.02l136.11,247.24V602.29  h67.46v340.99h-83.15l-135.72-246.06V943.28z M2173.2,602.29h70.6v340.99h-70.6V602.29z M2744.82,1069.06h-323.6  c17.26-40.27,30.99-82.24,41.06-125.78h408.19l107.6-107.6h-498.93c1.7-20.79,2.88-41.71,2.88-62.89c0-21.18-1.18-42.1-2.88-62.76  h624.71l107.6-107.73h-749.18c-10.07-43.41-23.8-85.51-41.06-125.78h915.89l107.6-107.6H2364.22  C2230.33,158.67,1995.25,18.9,1728,18.9c-267.25,0-502.33,139.77-636.22,350.01H11.29l107.6,107.6h915.89  c-17.26,40.27-30.99,82.37-41.06,125.78H244.54l107.6,107.73h624.71c-1.7,20.66-2.88,41.58-2.88,62.76  c0,21.18,1.18,42.1,2.88,62.89H477.93l107.6,107.6h408.19c10.07,43.54,23.8,85.51,41.06,125.78h-323.6l107.6,107.6h273  c133.89,210.24,368.97,350.14,636.22,350.14c267.24,0,502.33-139.9,636.22-350.14h273L2744.82,1069.06z M1728,1419.2  c-356.42,0-646.41-290-646.41-646.41c0-356.42,290-646.28,646.41-646.28c356.41,0,646.41,289.87,646.41,646.28  C2374.41,1129.21,2084.42,1419.2,1728,1419.2"></path></g></svg>