<svg xmlns="http://www.w3.org/2000/svg" xmlns:xlink="http://www.w3.org/1999/xlink" id="Layer_1" x="0px" y="0px" viewBox="0 0 612 516" style="enable-background:new 0 0 612 516;" xml:space="preserve"><style type="text/css">	.st0{fill:#FFFFFF;}</style><g>	<g>		<path class="st0" d="M356.32,276.96c-0.44,0.09-2.42,0.15-3.19,0.15h-62.37v14.45h63.32c0.53,0,4.17-0.03,4.99-0.09   c12.91-1.15,18.82-11.91,18.82-21.42c0-9.63-6.12-20-17.85-21.16c-2.3-0.21-4.17-0.24-5.08-0.21h-41.37   c-1.89,0-3.81-0.15-4.61-0.35c-3.31-0.89-4.46-3.75-4.46-6.12c0-2.19,1.21-5.08,4.58-6.09c1-0.3,2.04-0.32,4.31-0.32h59.77v-14.3   h-60.72c-2.57,0-4.46,0.09-6.09,0.32c-10.4,1.42-17.67,9.81-17.67,20.42c0,8.69,5.44,18.79,17.43,20.53   c2.13,0.3,5.23,0.3,6.53,0.3h40.33c0.77,0,2.54,0.06,2.93,0.09c4.52,0.62,6.15,4.02,6.15,7   C362.08,273,360.31,276.25,356.32,276.96"></path>		<path class="st0" d="M238.31,276.96c-0.44,0.09-2.42,0.15-3.19,0.15h-62.37v14.45h63.35c0.53,0,4.17-0.03,4.99-0.09   c12.91-1.15,18.82-11.91,18.82-21.42c0-9.63-6.15-20-17.85-21.16c-2.3-0.21-4.17-0.24-5.08-0.21h-41.37   c-1.86,0-3.81-0.15-4.61-0.35c-3.31-0.89-4.46-3.75-4.46-6.12c0-2.19,1.18-5.08,4.58-6.09c1-0.3,2.07-0.32,4.34-0.32h59.74v-14.3   h-60.72c-2.57,0-4.46,0.09-6.09,0.32c-10.4,1.42-17.67,9.81-17.67,20.42c0,8.69,5.44,18.79,17.43,20.53c2.13,0.3,5.2,0.3,6.53,0.3   h40.33c0.77,0,2.57,0.06,2.93,0.09c4.52,0.62,6.15,4.02,6.15,7C244.07,273,242.3,276.25,238.31,276.96"></path>	</g>	<rect x="124.49" y="221.09" class="st0" width="15.66" height="70.82"></rect>	<polygon class="st0" points="74.18,221.09 74.18,273.86 21.97,221.09 1.79,221.09 1.79,291.91 17.48,291.91 17.48,238.79   70.04,291.91 89.84,291.91 89.84,221.09  "></polygon>	<polygon class="st0" points="594.55,221.09 594.55,273.86 542.34,221.09 522.16,221.09 522.16,291.91 537.85,291.91 537.85,238.79   590.42,291.91 610.21,291.91 610.21,221.09  "></polygon>	<path class="st0" d="M466.65,265.88h-35.4l17.7-28.45L466.65,265.88z M440.5,221.09l-44.23,70.82h19.03l7.86-12.65h51.56  l7.86,12.65h19l-44.2-70.82H440.5z"></path>	<g>		<path class="st0" d="M88.98,180.85C120.57,88.51,207.82,26.49,306.09,26.49S491.61,88.54,523.2,180.85l0.27,0.77h69.11v-8.3   l-28.75-3.34c-17.73-2.07-21.51-9.87-26.33-19.8l-1.15-2.39C494.8,59.23,404.42,2,306.09,2S117.37,59.23,75.83,147.78l-1.18,2.39   c-4.79,9.9-8.57,17.7-26.33,19.77l-28.75,3.34v8.3h69.11L88.98,180.85z"></path>		<path class="st0" d="M523.43,331.45l-0.27,0.77c-31.59,92.3-118.84,154.32-217.11,154.32h-0.03   c-98.27,0-185.52-62.05-217.11-154.38l-0.27-0.77H19.55v8.3l28.75,3.34c17.73,2.07,21.54,9.9,26.33,19.8l1.15,2.36   c41.54,88.55,131.9,145.78,230.26,145.81h0.03c98.33,0,188.68-57.2,230.23-145.72l1.18-2.42c4.79-9.9,8.57-17.7,26.33-19.77   l28.75-3.34v-8.3H523.43z"></path>	</g></g></svg>