<svg xmlns="http://www.w3.org/2000/svg" xmlns:xlink="http://www.w3.org/1999/xlink" id="Layer_1" x="0px" y="0px" viewBox="0 0 600 164" style="enable-background:new 0 0 600 164;" xml:space="preserve"><style type="text/css">	.st0{fill:#FFFFFF;}</style><path class="st0" d="M75.47,2.49c22.84,0.02,49.01,1.2,58.15,2.11c11.61,1.14,14.43,1.68,14.43,12.99c0,8.91,0.41,48.77-1.73,77.04 c-1.2,15.68-2.23,29.21-23.07,41.64h0c-20.44,12.18-38.18,20.39-40.88,21.59c-2.69,1.2-6.25,3.21-6.98,3.36s-1.91,0.17-2.71,0 c-0.8-0.17-5.14-2.3-6.82-3.12c-1.68-0.82-26.62-13.24-41.02-21.82h0C3.99,123.83,2.96,110.3,1.76,94.62 c-2.14-28.27-1.73-68.13-1.73-77.04c0-11.3,2.82-11.85,14.42-12.99c9.14-0.9,35.32-2.08,58.16-2.11H75.47z M72.61,6.06L72.61,6.06 C49.69,6.08,23.5,7.41,14.81,8.15C5.32,8.96,3.62,9.57,3.6,17.58l-0.07,7.28c-0.07,5.71-0.17,13.78-0.17,22.85 c0,14.79,0.87,32.27,1.96,46.64c1.17,15.28,2.09,27.36,21.34,38.84c14.79,8.82,40.52,21.56,40.77,21.68l0.86,0.43 c1.21,0.59,4.41,2.12,5.21,2.41c0.29,0.04,0.8,0.04,1.09,0c0.77-0.26,2.89-1.37,4.64-2.15l2.18-1.02c0.18-0.08,18.03-8.24,40-21.34 c19.25-11.48,20.17-23.56,21.34-38.85c1.09-14.37,1.96-31.86,1.96-46.65c0-9.07-0.1-17.13-0.17-22.85l-0.07-7.27 c-0.04-7.06-1.38-8.62-11.2-9.43c-8.7-0.72-34.88-2.06-57.81-2.09H72.61z"></path><path class="st0" d="M41.67,22.56c16.93,0,25.65,14.44,30.65,24.96l-1.58,8.61C61.99,37.9,51.53,26.3,38.87,26.3 c-13.69,0-21.39,17.47-23.38,20.41C19.02,37.72,29.3,22.56,41.67,22.56"></path><path class="st0" d="M131.45,46.71c-1.98-2.94-9.69-20.41-23.38-20.41c-12.66,0-23.12,11.6-31.89,29.83l-1.57-8.61 c5-10.52,13.72-24.96,30.66-24.96C117.64,22.55,127.92,37.72,131.45,46.71"></path><path class="st0" d="M118.85,44.2c-11.08-0.21-20.67,8.35-27.14,29.09l3.63,2.29l-1.5,8.67l-8.26,2.93l-1.63,11.21l4.01-5.1 l5.64-1.14l-2.51,6.75l-7.77,4.33l-2.75,18.09l1.04,6.8l-7.99,3.09v0.01l-7.33-3.1l1.04-6.8l-2.76-18.09l-7.77-4.33l-2.5-6.75 l5.64,1.14l4.01,5.1l-1.63-11.21l-8.27-2.93l-1.5-8.67l3.63-2.29C49.72,52.54,40.13,43.98,29.05,44.2 c-8.85,0.17-15.43,10.49-14.7,21.41l7.68,0.91c2.75,15.39,5.31,34.94,11.11,34.94c1.76,0,1.84-2.77,1.84-5.01 c0-5.44-3.28-11.98-3.28-22.35c0-4.79,1.56-8.91,5.09-8.91c2.4,0,3.49,0.64,4.62,2.74c-0.96,7.1-0.99,13.2,4.55,16.95 c1.22,0.83,3.87,3.32,3.87,3.32s4.56,17.94,4.84,19.14c0.26,1.09,0.91,2.59,1.4,3.5c0.72,1.26,5.78,10.1,5.78,10.1 s1.73,10.85,2.09,12.71c0.91,4.63,5.62,5.03,9.47,5.06v0h0.28c0.09,0,0.17,0,0.25,0c0.08,0,0.16,0,0.25,0h0.28v0 c3.85-0.03,8.56-0.43,9.47-5.06c0.36-1.87,2.09-12.71,2.09-12.71s5.07-8.84,5.78-10.1c0.49-0.91,1.14-2.4,1.4-3.5 c0.28-1.19,4.84-19.14,4.84-19.14s2.65-2.49,3.87-3.32c5.54-3.75,5.51-9.85,4.55-16.95c1.13-2.09,2.22-2.74,4.62-2.74 c3.54,0,5.09,4.12,5.09,8.91c0,10.38-3.28,16.91-3.28,22.35c0,2.25,0.07,5.01,1.84,5.01c5.79,0,8.35-19.55,11.1-34.94l7.68-0.91 C134.29,54.69,127.71,44.37,118.85,44.2 M46.23,82.47c-4.18-1.82-4.28-5.58-2.88-12.27l4.53,5.94l0.85,7.34 C48.73,83.48,47.63,83.09,46.23,82.47 M101.56,82.47c-1.41,0.61-2.5,1.01-2.5,1.01l0.85-7.34l4.53-5.94 C105.83,76.89,105.73,80.65,101.56,82.47"></path><path class="st0" d="M391.33,90.81h-27.62l-5.93,14.43h-43.46l31.8-59.63h64.38l30.74,59.63h-43.46L391.33,90.81z M387.39,77.39 l-9.14-20.23h-0.42l-10.28,20.23H387.39z"></path><polygon class="st0" points="560.27,70.89 558.4,70.89 539.85,105.24 513.36,105.24 494.85,71.05 493.09,71.07 492.95,105.24  453.21,105.24 453.21,45.61 515.74,45.61 526.87,64.36 527.4,64.36 539.59,45.61 600,45.61 600,105.24 560.26,105.24 "></polygon><path class="st0" d="M244.15,85.14h-8.85v20.1h-41.34V45.61h59.62c31.27,0,44.02,5.14,45.55,18.41c0.76,6.6-2.86,18.51-17.35,19.7 l21.62,21.53h-43.72L244.15,85.14z M235.06,72.66h8.29c8.9,0,11.48-2.86,11.55-5.71c0.13-5.52-0.93-9.82-11.1-9.82h-8.73V72.66z"></path><path class="st0" d="M137.68,67.98l-1.26,2.4c0,0-5.05,0.53-5.23,0.53c-2.44,19.43-10.33,40.19-18.95,40.19 c-2.84,0-2.92-4.4-2.92-9.64c0-2.23,0.31-4.22,0.66-5.96c-0.92,1.71-2.51,7.97-2.51,13.31c0,6.25,3.51,9.68,9.52,9.68 c6.09,0,11.19-2.98,14.52-8.52c-2.15,5.96-6.35,11.12-15.34,16.51c-20.25,12.07-37.15,19.64-37.31,19.71l-1.27,0.57 c-1.08,0.48-2.84,1.27-3.94,1.74c-1.03-0.48-2.57-1.23-3.26-1.58l-0.82-0.4c-0.21-0.1-24.03-11.9-37.67-20.03 c-8.41-5.05-12.63-9.89-14.9-15.38c3.32,4.78,7.94,7.38,13.59,7.38c6.01,0,9.52-3.44,9.52-9.68c0-5.34-1.58-11.6-2.51-13.31 c0.35,1.75,0.66,3.73,0.66,5.96c0,5.24-0.08,9.64-2.92,9.64c-8.62,0-16.53-20.85-18.97-40.28c-0.36-0.03-4.9-0.49-4.9-0.49 L9.92,67.4c0,0-0.28,9.33,0.03,15.45c0.31,6.12,0.96,11.38,2.92,18.84c0.37,1.42,0.81,2.75,1.3,4.01c1.72,8.21,5.71,15,17.14,21.78 c13.71,8.17,37.51,19.96,37.75,20.08l0.81,0.4c0.75,0.37,2.48,1.22,3.53,1.7l0.23,0.1l0.23-0.1c1.1-0.45,3.04-1.33,4.2-1.85 l1.27-0.57c0.19-0.08,17.11-7.66,37.43-19.77c12.65-7.5,16.19-15.03,17.62-24.47c0.12-0.43,0.23-0.87,0.34-1.32 c1.68-7.54,2.38-11.48,2.69-17.61C137.69,78.82,137.68,70.26,137.68,67.98 M12.77,65.52L12.77,65.52 c-0.08-5.25-0.11-10.43-0.11-15.3c0-8.43,0.09-15.93,0.16-21.24c0-0.01,0.02-5.24,0.07-6.8c0.04-1.53,0.36-3.02,0.98-3.74 c0.65-0.83,2.05-1.04,5.39-1.22c2.23-0.14,29.07-1.96,49.17-1.96h0.02c1.46,0,2.88,0.01,4.26,0.03c0,0,0.01,0,0.03,0 c0.26,0,0.44,0.01,0.55,0.01c0.06,0,0.1,0,0.12,0c0.01,0,0.02,0,0.03,0h0.02c0,0,0,0,0.02,0c0,0,0.01,0,0.03,0 c0.01,0,0.02,0,0.05-0.01h1.81l0-0.58l0,0.58c0.16,0,0.33,0,0.49,0c16.74,0,50.76,1.71,52.95,1.93c2.83,0.25,4.7,0.64,5.33,1.33 c0.63,0.64,0.82,1.38,0.93,2.99c0.1,1.5,0.2,7.45,0.2,7.45c0.06,5.31,0.16,12.8,0.16,21.23c0,4.94-0.03,10.21-0.12,15.54l1.15,0.75 c0.1-5.59,0.13-11.12,0.13-16.29c0-8.44-0.09-15.94-0.16-21.25c0-0.01-0.1-5.93-0.2-7.51c-0.1-1.64-0.33-2.8-1.27-3.73 c-1.18-1.13-3.18-1.36-6.04-1.66c-2.3-0.22-36.24-1.93-53.06-1.93c-0.17,0-0.33,0-0.5,0h-2.64c-1.38-0.02-2.81-0.03-4.28-0.03 c-20.16,0-47.03,1.82-49.26,1.96c-3.28,0.21-5.03,0.28-6.21,1.64c-0.92,1.13-1.19,2.8-1.25,4.45c-0.05,1.61-0.07,6.83-0.07,6.83 c-0.06,5.31-0.16,12.81-0.16,21.25c0,5.1,0.03,10.54,0.13,16.04L12.77,65.52z"></path></svg>