<svg xmlns="http://www.w3.org/2000/svg" xmlns:xlink="http://www.w3.org/1999/xlink" id="Layer_1" x="0px" y="0px" viewBox="0 0 600 600" style="enable-background:new 0 0 600 600;" xml:space="preserve"><style type="text/css">	.st0{fill:#FFFFFF;}</style><g>	<path class="st0" d="M287.58,340.43c-16.02-12.2-27.61-47.59-27.61-89.37c0-1.72,0.03-3.42,0.07-5.11  c-47.05-7.02-80.81-26.12-80.81-48.59c0-1.01,0.08-2.01,0.21-3.02c-11.99,14.4-18.87,31.14-18.87,49  C160.57,294.29,216.4,336.08,287.58,340.43z"></path>	<path class="st0" d="M188.97,396.99c-1.24-0.23-2.53-0.34-3.84-0.34c-1.3,0-2.6,0.12-3.84,0.34c-6.99,1.23-12.76,6.07-15.29,12.51  c-1.43,3.66-2.23,7.65-2.23,11.83s0.8,8.16,2.23,11.82c2.54,6.46,8.31,11.29,15.29,12.52c1.24,0.21,2.54,0.34,3.84,0.34  c1.31,0,2.6-0.13,3.84-0.34c6.99-1.24,12.76-6.07,15.29-12.52c1.44-3.66,2.23-7.65,2.23-11.82s-0.79-8.16-2.23-11.83  C201.73,403.05,195.96,398.22,188.97,396.99z"></path>	<path class="st0" d="M262.21,219.95c5.46-36.58,20.25-62.82,37.65-62.82c17.4,0,32.18,26.23,37.64,62.82  c33.13-5.17,56.28-16.94,56.28-30.66c0-18.47-42.05-33.45-93.92-33.45c-51.88,0-93.93,14.98-93.93,33.45  C205.93,203.01,229.09,214.78,262.21,219.95z"></path>	<path class="st0" d="M299.87,248.83c-8.6,0-16.98-0.39-25.06-1.12c0.64,33.21,11.62,59.64,25.06,59.64  c13.44,0,24.41-26.43,25.06-59.64C316.84,248.44,308.46,248.83,299.87,248.83z"></path>	<path class="st0" d="M339.69,245.95c0.04,1.69,0.06,3.4,0.06,5.11c0,41.78-11.59,77.17-27.61,89.37c71.17-4.35,127-46.14,127-97.09  c0-17.87-6.88-34.61-18.87-49c0.14,1,0.21,2.01,0.21,3.02C420.48,219.83,386.73,238.93,339.69,245.95z"></path>	<path class="st0" d="M323.22,221.71c-3.66-23.31-12.74-39.82-23.35-39.82c-10.63,0-19.71,16.51-23.37,39.82  c7.47,0.68,15.29,1.04,23.37,1.04C307.93,222.76,315.75,222.39,323.22,221.71z"></path>	<polygon class="st0" points="469.64,429 491.35,429 480.5,399.91  "></polygon>	<path class="st0" d="M343.11,396.99c-1.24-0.22-2.53-0.34-3.83-0.34c-1.31,0-2.6,0.13-3.84,0.34c-6.99,1.23-12.77,6.07-15.29,12.52  c-1.44,3.66-2.24,7.65-2.24,11.82c0,4.18,0.8,8.16,2.24,11.83c2.53,6.45,8.3,11.29,15.29,12.52c1.24,0.22,2.53,0.34,3.84,0.34  c1.3,0,2.59-0.12,3.83-0.34c7-1.23,12.76-6.07,15.29-12.52c1.44-3.66,2.23-7.64,2.23-11.83c0-4.17-0.79-8.16-2.23-11.82  C355.87,403.06,350.1,398.22,343.11,396.99z"></path>	<path class="st0" d="M2.5,2.5v595h595V2.5H2.5z M227.34,152.69c20.18-6.49,45.3-10.32,72.52-10.32c27.21,0,52.33,3.83,72.52,10.32  c53.68,17.27,90.56,53.09,90.56,94.52c0,58.26-73.02,105.51-163.08,105.51c-90.08,0-163.09-47.25-163.09-105.51  C136.77,205.79,173.65,169.95,227.34,152.69z M142.38,398.49h-23.37l0,59.68h-16.57l0.01-59.68H79.08v-14h63.3V398.49z   M185.12,460.37c-21.56,0-39.04-17.49-39.04-39.04c0-21.56,17.48-39.04,39.04-39.04c21.56,0,39.04,17.48,39.04,39.04  C224.16,442.88,206.68,460.37,185.12,460.37z M270.46,430.9v27.26h-16.57V430.9l-29.46-46.41h19.52l18.23,31.67l18.23-31.67h19.51  L270.46,430.9z M339.27,460.37c-21.57,0-39.04-17.49-39.04-39.05c0-21.56,17.48-39.04,39.04-39.04c21.55,0,39.03,17.48,39.03,39.04  C378.31,442.88,360.83,460.37,339.27,460.37z M405.28,458.16l0-59.67h-23.36v-14h63.29v14h-23.36l0,59.67H405.28z M502.23,458.1  l-6.06-16.2v-0.01l-31.36,0.01l-6.04,16.2h-18.42l29.83-73.65h20.62l29.85,73.65H502.23z"></path></g></svg>