<svg xmlns="http://www.w3.org/2000/svg" xmlns:xlink="http://www.w3.org/1999/xlink" id="Ebene_1" x="0px" y="0px" viewBox="0 0 150 150" style="enable-background:new 0 0 150 150;" xml:space="preserve"><style type="text/css">	.st0{fill:none;}	.st1{fill:#FFFFFF;}</style><rect x="-25" y="-25" class="st0" width="200" height="200"></rect><path class="st1" d="M75,142.42c-36.92,0-67.21-30.49-67.21-67.42c0-8.3,1.45-16.18,4.25-23.54l39.31,79.14 c0.52,1.04,1.14,1.87,2.39,1.87s1.93-0.84,2.39-1.87l18.05-40.56c0.21-0.41,0.41-0.83,0.83-0.83c0.42,0,0.62,0.42,0.83,0.83 l18.05,40.56c0.46,1.02,1.14,1.87,2.39,1.87c1.24,0,1.87-0.83,2.39-1.87l39.31-79.14c2.8,7.36,4.25,15.25,4.25,23.54 C142.21,111.92,111.92,142.42,75,142.42z M75,59.75c-0.41,0-0.62-0.41-0.83-0.83l-21.16-47.5C59.86,8.93,67.32,7.58,75,7.58 c7.68,0,15.14,1.35,21.99,3.84l-21.16,47.5C75.62,59.34,75.42,59.75,75,59.75z M53.53,108.5c-0.41,0-0.62-0.41-0.83-0.83L18.47,38.7 c6.12-9.34,14.31-17.22,24.17-22.72l24.58,54.77c0.41,1.04,1.04,1.24,1.87,1.24h11.82c0.83,0,1.45-0.21,1.87-1.24l24.58-54.77 c9.85,5.5,18.05,13.38,24.17,22.72L97.3,107.67c-0.21,0.41-0.42,0.83-0.83,0.83c-0.42,0-0.62-0.41-0.83-0.83L82.78,78.22 c-0.42-1.04-1.04-1.24-1.87-1.24H69.09c-0.83,0-1.45,0.21-1.87,1.24l-12.86,29.46C54.15,108.09,53.94,108.5,53.53,108.5z M75,149.26 c41.07,0,74.26-33.19,74.26-74.26c0-41.07-33.19-74.26-74.26-74.26C33.93,0.74,0.74,33.93,0.74,75 C0.74,116.07,33.93,149.26,75,149.26z"></path></svg>